<mxfile host="app.diagrams.net" modified="2020-12-21T11:42:53.917Z" agent="5.0 (X11; Linux x86_64) AppleWebKit/537.36 (KHTML, like Gecko) Chrome/87.0.4280.66 Safari/537.36" etag="4c26flRQsqM54WPTKtQV" version="14.1.1" type="github">
  <diagram id="2hiJCetb5eQKajSvH-Eh" name="Page-1">
    <mxGraphModel dx="1330" dy="590" grid="1" gridSize="10" guides="1" tooltips="1" connect="1" arrows="1" fold="1" page="1" pageScale="1" pageWidth="1920" pageHeight="1200" math="0" shadow="0">
      <root>
        <mxCell id="0" />
        <mxCell id="1" parent="0" />
        <mxCell id="UWLn4PBx-_RPHeeAwzUR-1" value="" style="endArrow=none;html=1;exitX=0;exitY=0;exitDx=0;exitDy=0;entryX=1;entryY=0;entryDx=0;entryDy=0;" edge="1" parent="1" source="DUq77rUGLljhwTMfX-Vy-24" target="DUq77rUGLljhwTMfX-Vy-24">
          <mxGeometry width="50" height="50" relative="1" as="geometry">
            <mxPoint x="820" y="400" as="sourcePoint" />
            <mxPoint x="870" y="350" as="targetPoint" />
          </mxGeometry>
        </mxCell>
        <mxCell id="DUq77rUGLljhwTMfX-Vy-1" value="流程图" parent="0" />
        <mxCell id="DUq77rUGLljhwTMfX-Vy-5" style="vsdxID=27;fillColor=#f0f0f0;gradientColor=#ffffff;gradientDirection=north;fillOpacity=0;shape=stencil(nZBLDoAgDERP0z3SIyjew0SURgSD+Lu9kMZoXLhwN9N5bdMClrNpJg1SzDH4QW/URgNYgZTkjA4UkwJUgGXng+6DX1zLfmoymdXo1zxh5z6RO6Q42BWCfc2oJfdAr/AX/IH+BF/rk7hv7MjaZ/L+RirxJ1Gd);strokeColor=#404040;labelBackgroundColor=none;rounded=0;html=1;whiteSpace=wrap;" parent="DUq77rUGLljhwTMfX-Vy-1" vertex="1">
          <mxGeometry x="21" y="41" width="1080" height="2360" as="geometry" />
        </mxCell>
        <mxCell id="DUq77rUGLljhwTMfX-Vy-6" style="vsdxID=21;fillColor=none;gradientColor=none;gradientDirection=north;strokeColor=none;labelBackgroundColor=none;rounded=0;html=1;whiteSpace=wrap;" parent="DUq77rUGLljhwTMfX-Vy-1" vertex="1">
          <mxGeometry x="201" y="41" width="596" height="2360" as="geometry" />
        </mxCell>
        <mxCell id="DUq77rUGLljhwTMfX-Vy-7" style="vsdxID=22;fillColor=#f0f0f0;gradientColor=#ffffff;gradientDirection=north;fillOpacity=0;shape=stencil(nZBLDoAgDERP0z3SIyjew0SURgSD+Lu9kMZoXLhwN9O+tukAlrNpJg1SzDH4QW/URgNYgZTkjA4UkwJUgGXng+6DX1zLfmoymdXo17xh5zmRJ6Q42BWCfc2oJfdAr+Yv+AP9Cb7OJ3H/2JG1HNGz/84klThPVCc=);strokeColor=#404040;labelBackgroundColor=none;rounded=0;html=1;whiteSpace=wrap;" parent="DUq77rUGLljhwTMfX-Vy-6" vertex="1">
          <mxGeometry width="596" height="2360" as="geometry" />
        </mxCell>
        <mxCell id="DUq77rUGLljhwTMfX-Vy-8" value="&lt;font style=&quot;font-size:16px;font-family:Calibri;color:#000000;direction:ltr;letter-spacing:0px;line-height:120%;opacity:1&quot;&gt;&lt;b&gt;企业开发者&lt;br/&gt;&lt;/b&gt;&lt;/font&gt;" style="verticalAlign=middle;align=center;vsdxID=23;fillColor=#f0f0f0;gradientColor=#ffffff;gradientDirection=north;shape=stencil(nZBLDoAgDERP0z3SIyjew0SURgSD+Lu9kMZoXLhwN9O+tukAlrNpJg1SzDH4QW/URgNYgZTkjA4UkwJUgGXng+6DX1zLfmoymdXo17xh5zmRJ6Q42BWCfc2oJfdAr+Yv+AP9Cb7OJ3H/2JG1HNGz/84klThPVCc=);strokeColor=#404040;labelBackgroundColor=none;rounded=0;html=1;whiteSpace=wrap;" parent="DUq77rUGLljhwTMfX-Vy-6" vertex="1">
          <mxGeometry width="596" height="40" as="geometry" />
        </mxCell>
        <mxCell id="DUq77rUGLljhwTMfX-Vy-9" style="vsdxID=32;fillColor=none;gradientColor=none;gradientDirection=north;strokeColor=none;labelBackgroundColor=none;rounded=0;html=1;whiteSpace=wrap;" parent="DUq77rUGLljhwTMfX-Vy-1" vertex="1">
          <mxGeometry x="797" y="41" width="304" height="2360" as="geometry" />
        </mxCell>
        <mxCell id="DUq77rUGLljhwTMfX-Vy-10" style="vsdxID=33;fillColor=#f0f0f0;gradientColor=#ffffff;gradientDirection=north;fillOpacity=0;shape=stencil(nZBLDoAgDERP0z3SIyjew0SURgSD+Lu9kMZoXLhwN9O+tukAlrNpJg1SzDH4QW/URgNYgZTkjA4UkwJUgGXng+6DX1zLfmoymdXo17xh5zmRJ6Q42BWCfc2oJfdAr+Yv+AP9Cb7OJ3H/2JG1HNGz/84klThPVCc=);strokeColor=#404040;labelBackgroundColor=none;rounded=0;html=1;whiteSpace=wrap;" parent="DUq77rUGLljhwTMfX-Vy-9" vertex="1">
          <mxGeometry width="304" height="2360" as="geometry" />
        </mxCell>
        <mxCell id="DUq77rUGLljhwTMfX-Vy-11" value="&lt;font style=&quot;font-size:16px;font-family:Calibri;color:#000000;direction:ltr;letter-spacing:0px;line-height:120%;opacity:1&quot;&gt;&lt;b&gt;飞巴接口&lt;br/&gt;&lt;/b&gt;&lt;/font&gt;" style="verticalAlign=middle;align=center;vsdxID=34;fillColor=#f0f0f0;gradientColor=#ffffff;gradientDirection=north;shape=stencil(nZBLDoAgDERP0z3SIyjew0SURgSD+Lu9kMZoXLhwN9O+tukAlrNpJg1SzDH4QW/URgNYgZTkjA4UkwJUgGXng+6DX1zLfmoymdXo17xh5zmRJ6Q42BWCfc2oJfdAr+Yv+AP9Cb7OJ3H/2JG1HNGz/84klThPVCc=);strokeColor=#404040;labelBackgroundColor=none;rounded=0;html=1;whiteSpace=wrap;" parent="DUq77rUGLljhwTMfX-Vy-9" vertex="1">
          <mxGeometry width="304" height="40" as="geometry" />
        </mxCell>
        <mxCell id="DUq77rUGLljhwTMfX-Vy-12" style="vsdxID=35;fillColor=none;gradientColor=none;gradientDirection=north;strokeColor=none;labelBackgroundColor=none;rounded=0;html=1;whiteSpace=wrap;" parent="DUq77rUGLljhwTMfX-Vy-1" vertex="1">
          <mxGeometry x="21" y="41" width="180" height="2360" as="geometry" />
        </mxCell>
        <mxCell id="DUq77rUGLljhwTMfX-Vy-13" style="vsdxID=36;fillColor=#f0f0f0;gradientColor=#ffffff;gradientDirection=north;fillOpacity=0;shape=stencil(nZBLDoAgDERP0z3SIyjew0SURgSD+Lu9kMZoXLhwN9O+tukAlrNpJg1SzDH4QW/URgNYgZTkjA4UkwJUgGXng+6DX1zLfmoymdXo17xh5zmRJ6Q42BWCfc2oJfdAr+Yv+AP9Cb7OJ3H/2JG1HNGz/84klThPVCc=);strokeColor=#404040;labelBackgroundColor=none;rounded=0;html=1;whiteSpace=wrap;" parent="DUq77rUGLljhwTMfX-Vy-12" vertex="1">
          <mxGeometry width="180" height="2360" as="geometry" />
        </mxCell>
        <mxCell id="DUq77rUGLljhwTMfX-Vy-14" value="&lt;font style=&quot;font-size:16px;font-family:Calibri;color:#000000;direction:ltr;letter-spacing:0px;line-height:120%;opacity:1&quot;&gt;&lt;b&gt;用户&lt;br/&gt;&lt;/b&gt;&lt;/font&gt;" style="verticalAlign=middle;align=center;vsdxID=37;fillColor=#f0f0f0;gradientColor=#ffffff;gradientDirection=north;shape=stencil(nZBLDoAgDERP0z3SIyjew0SURgSD+Lu9kMZoXLhwN9O+tukAlrNpJg1SzDH4QW/URgNYgZTkjA4UkwJUgGXng+6DX1zLfmoymdXo17xh5zmRJ6Q42BWCfc2oJfdAr+Yv+AP9Cb7OJ3H/2JG1HNGz/84klThPVCc=);strokeColor=#404040;labelBackgroundColor=none;rounded=0;html=1;whiteSpace=wrap;" parent="DUq77rUGLljhwTMfX-Vy-12" vertex="1">
          <mxGeometry width="180" height="40" as="geometry" />
        </mxCell>
        <mxCell id="DUq77rUGLljhwTMfX-Vy-15" style="vsdxID=28;fillColor=#f0f0f0;gradientColor=#ffffff;gradientDirection=north;shape=stencil(nZBLDoAgDERP0z3SIyDew0QUooJB/N1eSGM0LFywm2lf23QAxarbRQFna/BuVIfpggasgXNjtfImRAUoAUXvvBq822xHfmkTmdTs9rThpDmWJji7yFWMfEPoZOwHfZpF8A9aCGbno3h/jCYPIJYoPJQ3);strokeColor=#404040;shadow=1;labelBackgroundColor=none;rounded=0;html=1;whiteSpace=wrap;" parent="DUq77rUGLljhwTMfX-Vy-1" vertex="1">
          <mxGeometry x="1" y="81" width="1100" height="2320" as="geometry" />
        </mxCell>
        <mxCell id="DUq77rUGLljhwTMfX-Vy-16" style="vsdxID=29;fillColor=none;gradientColor=none;gradientDirection=north;strokeColor=none;shadow=1;labelBackgroundColor=none;rounded=0;html=1;whiteSpace=wrap;" parent="DUq77rUGLljhwTMfX-Vy-1" vertex="1">
          <mxGeometry x="1" y="1971" width="1100" height="430" as="geometry" />
        </mxCell>
        <mxCell id="DUq77rUGLljhwTMfX-Vy-17" value="&lt;font style=&quot;font-size:11px;font-family:Calibri;color:#000000;direction:ltr;letter-spacing:0px;line-height:120%;opacity:1&quot;&gt;改签补款确认&lt;br/&gt;&lt;/font&gt;" style="verticalAlign=middle;align=left;vsdxID=31;rotation=270;fillColor=#f0f0f0;gradientColor=#ffffff;gradientDirection=north;shape=stencil(nZBLDoAgDERP0z3SIyjew0SURgSD+Lu9kMZoXLhwN9O+tukAlrNpJg1SzDH4QW/URgNYgZTkjA4UkwJUgGXng+6DX1zLfmoymdXo17xh5zmRJ6Q42BWCfc2oJfdAr+Yv+AP9Cb7OJ3H/2JG1HNGz/84klThPVCc=);strokeColor=#404040;spacingTop=-1;spacingBottom=-1;spacingLeft=-1;spacingRight=-1;labelBackgroundColor=none;rounded=0;html=1;whiteSpace=wrap;" parent="DUq77rUGLljhwTMfX-Vy-16" vertex="1">
          <mxGeometry x="-205" y="205" width="430" height="20" as="geometry" />
        </mxCell>
        <mxCell id="DUq77rUGLljhwTMfX-Vy-21" style="vsdxID=4;fillColor=none;gradientColor=none;gradientDirection=north;strokeColor=none;shadow=1;labelBackgroundColor=none;rounded=0;html=1;whiteSpace=wrap;" parent="DUq77rUGLljhwTMfX-Vy-1" vertex="1">
          <mxGeometry x="1" y="571" width="1100" height="224" as="geometry" />
        </mxCell>
        <mxCell id="DUq77rUGLljhwTMfX-Vy-22" value="" style="verticalAlign=middle;align=center;vsdxID=5;rotation=90;fillColor=#f0f0f0;gradientColor=#ffffff;gradientDirection=north;fillOpacity=0;shape=stencil(fY9LDoAgDERP0z3SIyjeg0SURgWD+Lu9kC4UF+5m2td2ClivVi8GpFhj8KM5qIsWsAEpyVkTKCYFqADr3gczBL+5jv2iM5nV7Pe84eS5Sog8I8VV+pbhidwPXKBJPEc437v3DZRK/AyqGw==);strokeColor=#404040;spacingTop=-1;spacingBottom=-1;spacingLeft=-1;spacingRight=-1;labelBackgroundColor=none;rounded=0;html=1;whiteSpace=wrap;" parent="DUq77rUGLljhwTMfX-Vy-21" vertex="1">
          <mxGeometry x="438" y="-438" width="224" height="1100" as="geometry" />
        </mxCell>
        <mxCell id="DUq77rUGLljhwTMfX-Vy-23" value="&lt;font style=&quot;font-size:11px;font-family:Calibri;color:#000000;direction:ltr;letter-spacing:0px;line-height:120%;opacity:1&quot;&gt;下单&lt;br/&gt;&lt;/font&gt;" style="verticalAlign=middle;align=left;vsdxID=6;rotation=270;fillColor=#f0f0f0;gradientColor=#ffffff;gradientDirection=north;shape=stencil(nZBLDoAgDERP0z3SIyjew0SURgSD+Lu9kMZoXLhwN9O+tukAlrNpJg1SzDH4QW/URgNYgZTkjA4UkwJUgGXng+6DX1zLfmoymdXo17xh5zmRJ6Q42BWCfc2oJfdAr+Yv+AP9Cb7OJ3H/2JG1HNGz/84klThPVCc=);strokeColor=#404040;spacingTop=-1;spacingBottom=-1;spacingLeft=-1;spacingRight=-1;labelBackgroundColor=none;rounded=0;html=1;whiteSpace=wrap;" parent="DUq77rUGLljhwTMfX-Vy-21" vertex="1">
          <mxGeometry x="-102" y="102" width="224" height="20" as="geometry" />
        </mxCell>
        <mxCell id="DUq77rUGLljhwTMfX-Vy-24" style="vsdxID=46;fillColor=none;gradientColor=none;gradientDirection=north;strokeColor=none;shadow=1;labelBackgroundColor=none;rounded=0;html=1;whiteSpace=wrap;" parent="DUq77rUGLljhwTMfX-Vy-1" vertex="1">
          <mxGeometry x="1" y="291" width="1100" height="280" as="geometry" />
        </mxCell>
        <mxCell id="DUq77rUGLljhwTMfX-Vy-25" value="" style="verticalAlign=middle;align=center;vsdxID=47;rotation=90;fillColor=#f0f0f0;gradientColor=#ffffff;gradientDirection=north;fillOpacity=0;shape=stencil(fY9LDoAgDERP0z3SIyjeg0SURgWD+Lu9kC4UF+5m2td2ClivVi8GpFhj8KM5qIsWsAEpyVkTKCYFqADr3gczBL+5jv2iM5nV7Pe84eS5Sog8I8VV+pbhidwPXKBJPEc437v3DZRK/AyqGw==);strokeColor=#404040;spacingTop=-1;spacingBottom=-1;spacingLeft=-1;spacingRight=-1;labelBackgroundColor=none;rounded=0;html=1;whiteSpace=wrap;" parent="DUq77rUGLljhwTMfX-Vy-24" vertex="1">
          <mxGeometry x="410" y="-410" width="280" height="1100" as="geometry" />
        </mxCell>
        <mxCell id="DUq77rUGLljhwTMfX-Vy-26" value="&lt;font style=&quot;font-size:11px;font-family:Calibri;color:#000000;direction:ltr;letter-spacing:0px;line-height:120%;opacity:1&quot;&gt;验价&lt;br/&gt;&lt;/font&gt;" style="verticalAlign=middle;align=left;vsdxID=48;rotation=270;fillColor=#f0f0f0;gradientColor=#ffffff;gradientDirection=north;shape=stencil(nZBLDoAgDERP0z3SIyjew0SURgSD+Lu9kMZoXLhwN9O+tukAlrNpJg1SzDH4QW/URgNYgZTkjA4UkwJUgGXng+6DX1zLfmoymdXo17xh5zmRJ6Q42BWCfc2oJfdAr+Yv+AP9Cb7OJ3H/2JG1HNGz/84klThPVCc=);strokeColor=#404040;spacingTop=-1;spacingBottom=-1;spacingLeft=-1;spacingRight=-1;labelBackgroundColor=none;rounded=0;html=1;whiteSpace=wrap;" parent="DUq77rUGLljhwTMfX-Vy-24" vertex="1">
          <mxGeometry x="-130" y="130" width="280" height="20" as="geometry" />
        </mxCell>
        <mxCell id="DUq77rUGLljhwTMfX-Vy-27" style="vsdxID=72;fillColor=none;gradientColor=none;gradientDirection=north;strokeColor=none;shadow=1;labelBackgroundColor=none;rounded=0;html=1;whiteSpace=wrap;" parent="DUq77rUGLljhwTMfX-Vy-1" vertex="1">
          <mxGeometry x="1" y="795" width="1100" height="374" as="geometry" />
        </mxCell>
        <mxCell id="DUq77rUGLljhwTMfX-Vy-28" value="" style="verticalAlign=middle;align=center;vsdxID=73;rotation=90;fillColor=#f0f0f0;gradientColor=#ffffff;gradientDirection=north;fillOpacity=0;shape=stencil(fY9LDoAgDERP0z3SIyjeg0SURgWD+Lu9kC4UF+5m2td2ClivVi8GpFhj8KM5qIsWsAEpyVkTKCYFqADr3gczBL+5jv2iM5nV7Pe84eS5Sog8I8VV+pbhidwPXKBJPEc437v3DZRK/AyqGw==);strokeColor=#404040;spacingTop=-1;spacingBottom=-1;spacingLeft=-1;spacingRight=-1;labelBackgroundColor=none;rounded=0;html=1;whiteSpace=wrap;" parent="DUq77rUGLljhwTMfX-Vy-27" vertex="1">
          <mxGeometry x="363" y="-363" width="374" height="1100" as="geometry" />
        </mxCell>
        <mxCell id="DUq77rUGLljhwTMfX-Vy-29" value="&lt;font style=&quot;font-size:11px;font-family:Calibri;color:#000000;direction:ltr;letter-spacing:0px;line-height:120%;opacity:1&quot;&gt;出票&lt;br/&gt;&lt;/font&gt;" style="verticalAlign=middle;align=left;vsdxID=74;rotation=270;fillColor=#f0f0f0;gradientColor=#ffffff;gradientDirection=north;shape=stencil(nZBLDoAgDERP0z3SIyjew0SURgSD+Lu9kMZoXLhwN9O+tukAlrNpJg1SzDH4QW/URgNYgZTkjA4UkwJUgGXng+6DX1zLfmoymdXo17xh5zmRJ6Q42BWCfc2oJfdAr+Yv+AP9Cb7OJ3H/2JG1HNGz/84klThPVCc=);strokeColor=#404040;spacingTop=-1;spacingBottom=-1;spacingLeft=-1;spacingRight=-1;labelBackgroundColor=none;rounded=0;html=1;whiteSpace=wrap;" parent="DUq77rUGLljhwTMfX-Vy-27" vertex="1">
          <mxGeometry x="-177" y="177" width="374" height="20" as="geometry" />
        </mxCell>
        <mxCell id="DUq77rUGLljhwTMfX-Vy-30" style="vsdxID=90;fillColor=none;gradientColor=none;gradientDirection=north;strokeColor=none;shadow=1;labelBackgroundColor=none;rounded=0;html=1;whiteSpace=wrap;" parent="DUq77rUGLljhwTMfX-Vy-1" vertex="1">
          <mxGeometry x="1" y="1169" width="1100" height="342" as="geometry" />
        </mxCell>
        <mxCell id="DUq77rUGLljhwTMfX-Vy-31" value="" style="verticalAlign=middle;align=center;vsdxID=91;rotation=90;fillColor=#f0f0f0;gradientColor=#ffffff;gradientDirection=north;fillOpacity=0;shape=stencil(fY9LDoAgDERP0z3SIyjeg0SURgWD+Lu9kC4UF+5m2td2ClivVi8GpFhj8KM5qIsWsAEpyVkTKCYFqADr3gczBL+5jv2iM5nV7Pe84eS5Sog8I8VV+pbhidwPXKBJPEc437v3DZRK/AyqGw==);strokeColor=#404040;spacingTop=-1;spacingBottom=-1;spacingLeft=-1;spacingRight=-1;labelBackgroundColor=none;rounded=0;html=1;whiteSpace=wrap;" parent="DUq77rUGLljhwTMfX-Vy-30" vertex="1">
          <mxGeometry x="379" y="-379" width="342" height="1100" as="geometry" />
        </mxCell>
        <mxCell id="DUq77rUGLljhwTMfX-Vy-32" value="&lt;font style=&quot;font-size:11px;font-family:Calibri;color:#000000;direction:ltr;letter-spacing:0px;line-height:120%;opacity:1&quot;&gt;退票&lt;br/&gt;&lt;/font&gt;" style="verticalAlign=middle;align=left;vsdxID=92;rotation=270;fillColor=#f0f0f0;gradientColor=#ffffff;gradientDirection=north;shape=stencil(nZBLDoAgDERP0z3SIyjew0SURgSD+Lu9kMZoXLhwN9O+tukAlrNpJg1SzDH4QW/URgNYgZTkjA4UkwJUgGXng+6DX1zLfmoymdXo17xh5zmRJ6Q42BWCfc2oJfdAr+Yv+AP9Cb7OJ3H/2JG1HNGz/84klThPVCc=);strokeColor=#404040;spacingTop=-1;spacingBottom=-1;spacingLeft=-1;spacingRight=-1;labelBackgroundColor=none;rounded=0;html=1;whiteSpace=wrap;" parent="DUq77rUGLljhwTMfX-Vy-30" vertex="1">
          <mxGeometry x="-161" y="161" width="342" height="20" as="geometry" />
        </mxCell>
        <mxCell id="DUq77rUGLljhwTMfX-Vy-33" style="vsdxID=128;fillColor=none;gradientColor=none;gradientDirection=north;strokeColor=none;shadow=1;labelBackgroundColor=none;rounded=0;html=1;whiteSpace=wrap;" parent="DUq77rUGLljhwTMfX-Vy-1" vertex="1">
          <mxGeometry x="1" y="1511" width="1100" height="230" as="geometry" />
        </mxCell>
        <mxCell id="DUq77rUGLljhwTMfX-Vy-34" value="" style="verticalAlign=middle;align=center;vsdxID=129;rotation=90;fillColor=#f0f0f0;gradientColor=#ffffff;gradientDirection=north;fillOpacity=0;shape=stencil(fY9LDoAgDERP0z3SIyjeg0SURgWD+Lu9kC4UF+5m2td2ClivVi8GpFhj8KM5qIsWsAEpyVkTKCYFqADr3gczBL+5jv2iM5nV7Pe84eS5Sog8I8VV+pbhidwPXKBJPEc437v3DZRK/AyqGw==);strokeColor=#404040;spacingTop=-1;spacingBottom=-1;spacingLeft=-1;spacingRight=-1;labelBackgroundColor=none;rounded=0;html=1;whiteSpace=wrap;" parent="DUq77rUGLljhwTMfX-Vy-33" vertex="1">
          <mxGeometry x="435" y="-435" width="230" height="1100" as="geometry" />
        </mxCell>
        <mxCell id="DUq77rUGLljhwTMfX-Vy-35" value="&lt;font style=&quot;font-size:11px;font-family:Calibri;color:#000000;direction:ltr;letter-spacing:0px;line-height:120%;opacity:1&quot;&gt;改签航班查询&lt;br/&gt;&lt;/font&gt;" style="verticalAlign=middle;align=left;vsdxID=130;rotation=270;fillColor=#f0f0f0;gradientColor=#ffffff;gradientDirection=north;shape=stencil(nZBLDoAgDERP0z3SIyjew0SURgSD+Lu9kMZoXLhwN9O+tukAlrNpJg1SzDH4QW/URgNYgZTkjA4UkwJUgGXng+6DX1zLfmoymdXo17xh5zmRJ6Q42BWCfc2oJfdAr+Yv+AP9Cb7OJ3H/2JG1HNGz/84klThPVCc=);strokeColor=#404040;spacingTop=-1;spacingBottom=-1;spacingLeft=-1;spacingRight=-1;labelBackgroundColor=none;rounded=0;html=1;whiteSpace=wrap;" parent="DUq77rUGLljhwTMfX-Vy-33" vertex="1">
          <mxGeometry x="-105" y="105" width="230" height="20" as="geometry" />
        </mxCell>
        <mxCell id="DUq77rUGLljhwTMfX-Vy-36" style="vsdxID=131;fillColor=none;gradientColor=none;gradientDirection=north;strokeColor=none;shadow=1;labelBackgroundColor=none;rounded=0;html=1;whiteSpace=wrap;" parent="DUq77rUGLljhwTMfX-Vy-1" vertex="1">
          <mxGeometry x="1" y="1741" width="1100" height="230" as="geometry" />
        </mxCell>
        <mxCell id="DUq77rUGLljhwTMfX-Vy-37" value="" style="verticalAlign=middle;align=center;vsdxID=132;rotation=90;fillColor=#f0f0f0;gradientColor=#ffffff;gradientDirection=north;fillOpacity=0;shape=stencil(fY9LDoAgDERP0z3SIyjeg0SURgWD+Lu9kC4UF+5m2td2ClivVi8GpFhj8KM5qIsWsAEpyVkTKCYFqADr3gczBL+5jv2iM5nV7Pe84eS5Sog8I8VV+pbhidwPXKBJPEc437v3DZRK/AyqGw==);strokeColor=#404040;spacingTop=-1;spacingBottom=-1;spacingLeft=-1;spacingRight=-1;labelBackgroundColor=none;rounded=0;html=1;whiteSpace=wrap;" parent="DUq77rUGLljhwTMfX-Vy-36" vertex="1">
          <mxGeometry x="435" y="-435" width="230" height="1100" as="geometry" />
        </mxCell>
        <mxCell id="DUq77rUGLljhwTMfX-Vy-38" value="&lt;font style=&quot;font-size:11px;font-family:Calibri;color:#000000;direction:ltr;letter-spacing:0px;line-height:120%;opacity:1&quot;&gt;改签申请&lt;br/&gt;&lt;/font&gt;" style="verticalAlign=middle;align=left;vsdxID=133;rotation=270;fillColor=#f0f0f0;gradientColor=#ffffff;gradientDirection=north;shape=stencil(nZBLDoAgDERP0z3SIyjew0SURgSD+Lu9kMZoXLhwN9O+tukAlrNpJg1SzDH4QW/URgNYgZTkjA4UkwJUgGXng+6DX1zLfmoymdXo17xh5zmRJ6Q42BWCfc2oJfdAr+Yv+AP9Cb7OJ3H/2JG1HNGz/84klThPVCc=);strokeColor=#404040;spacingTop=-1;spacingBottom=-1;spacingLeft=-1;spacingRight=-1;labelBackgroundColor=none;rounded=0;html=1;whiteSpace=wrap;" parent="DUq77rUGLljhwTMfX-Vy-36" vertex="1">
          <mxGeometry x="-105" y="105" width="230" height="20" as="geometry" />
        </mxCell>
        <mxCell id="DUq77rUGLljhwTMfX-Vy-39" value="&lt;font style=&quot;font-size:11px;font-family:Calibri;color:#000000;direction:ltr;letter-spacing:0px;line-height:120%;opacity:1&quot;&gt;查询&lt;br/&gt;航班舱位报价信息&lt;br/&gt;&lt;/font&gt;" style="verticalAlign=middle;align=center;vsdxID=7;fillColor=#f0f0f0;gradientColor=#ffffff;gradientDirection=north;shape=stencil(nZBLDoAgDERP0z3SIyjew0SURgSD+Lu9kMZoXLhwN9O+tukAlrNpJg1SzDH4QW/URgNYgZTkjA4UkwJUgGXng+6DX1zLfmoymdXo17xh5zmRJ6Q42BWCfc2oJfdAr+Yv+AP9Cb7OJ3H/2JG1HNGz/84klThPVCc=);strokeColor=#404040;shadow=1;spacingTop=-1;spacingBottom=-1;spacingLeft=-1;spacingRight=-1;labelBackgroundColor=none;rounded=0;html=1;whiteSpace=wrap;" parent="DUq77rUGLljhwTMfX-Vy-1" vertex="1">
          <mxGeometry x="51" y="111" width="100" height="60" as="geometry" />
        </mxCell>
        <mxCell id="DUq77rUGLljhwTMfX-Vy-40" value="&lt;font style=&quot;font-size:11px;font-family:Calibri;color:#000000;direction:ltr;letter-spacing:0px;line-height:120%;opacity:1&quot;&gt;调用&lt;br/&gt;航班查询接口&lt;br/&gt;&lt;/font&gt;" style="verticalAlign=middle;align=center;vsdxID=11;fillColor=#f0f0f0;gradientColor=#ffffff;gradientDirection=north;shape=stencil(nZBLDoAgDERP0z3SIyjew0SURgSD+Lu9kMZoXLhwN9O+tukAlrNpJg1SzDH4QW/URgNYgZTkjA4UkwJUgGXng+6DX1zLfmoymdXo17xh5zmRJ6Q42BWCfc2oJfdAr+Yv+AP9Cb7OJ3H/2JG1HNGz/84klThPVCc=);strokeColor=#404040;shadow=1;spacingTop=-1;spacingBottom=-1;spacingLeft=-1;spacingRight=-1;labelBackgroundColor=none;rounded=0;html=1;whiteSpace=wrap;" parent="DUq77rUGLljhwTMfX-Vy-1" vertex="1">
          <mxGeometry x="421" y="111" width="100" height="60" as="geometry" />
        </mxCell>
        <mxCell id="DUq77rUGLljhwTMfX-Vy-41" value="&lt;font style=&quot;font-size:11px;font-family:Calibri;color:#000000;direction:ltr;letter-spacing:0px;line-height:120%;opacity:1&quot;&gt;查询&lt;br/&gt;航班舱位报价信息&lt;br/&gt;&lt;/font&gt;" style="verticalAlign=middle;align=center;vsdxID=12;fillColor=#f0f0f0;gradientColor=#ffffff;gradientDirection=north;shape=stencil(nZBLDoAgDERP0z3SIyjew0SURgSD+Lu9kMZoXLhwN9O+tukAlrNpJg1SzDH4QW/URgNYgZTkjA4UkwJUgGXng+6DX1zLfmoymdXo17xh5zmRJ6Q42BWCfc2oJfdAr+Yv+AP9Cb7OJ3H/2JG1HNGz/84klThPVCc=);strokeColor=#404040;shadow=1;spacingTop=-1;spacingBottom=-1;spacingLeft=-1;spacingRight=-1;labelBackgroundColor=none;rounded=0;html=1;whiteSpace=wrap;" parent="DUq77rUGLljhwTMfX-Vy-1" vertex="1">
          <mxGeometry x="921" y="111" width="100" height="60" as="geometry" />
        </mxCell>
        <mxCell id="DUq77rUGLljhwTMfX-Vy-42" value="&lt;font style=&quot;font-size:11px;font-family:Calibri;color:#000000;direction:ltr;letter-spacing:0px;line-height:120%;opacity:1&quot;&gt;返回&lt;br/&gt;航班舱位报价信息&lt;br/&gt;&lt;/font&gt;" style="verticalAlign=middle;align=center;vsdxID=16;fillColor=#f0f0f0;gradientColor=#ffffff;gradientDirection=north;shape=stencil(nZBLDoAgDERP0z3SIyjew0SURgSD+Lu9kMZoXLhwN9O+tukAlrNpJg1SzDH4QW/URgNYgZTkjA4UkwJUgGXng+6DX1zLfmoymdXo17xh5zmRJ6Q42BWCfc2oJfdAr+Yv+AP9Cb7OJ3H/2JG1HNGz/84klThPVCc=);strokeColor=#404040;shadow=1;spacingTop=-1;spacingBottom=-1;spacingLeft=-1;spacingRight=-1;labelBackgroundColor=none;rounded=0;html=1;whiteSpace=wrap;" parent="DUq77rUGLljhwTMfX-Vy-1" vertex="1">
          <mxGeometry x="421" y="201" width="100" height="60" as="geometry" />
        </mxCell>
        <mxCell id="DUq77rUGLljhwTMfX-Vy-43" value="&lt;font style=&quot;font-size:11px;font-family:Calibri;color:#000000;direction:ltr;letter-spacing:0px;line-height:120%;opacity:1&quot;&gt;展示&lt;br/&gt;航班舱位报价信息&lt;br/&gt;&lt;/font&gt;" style="verticalAlign=middle;align=center;vsdxID=17;fillColor=#f0f0f0;gradientColor=#ffffff;gradientDirection=north;shape=stencil(nZBLDoAgDERP0z3SIyjew0SURgSD+Lu9kMZoXLhwN9O+tukAlrNpJg1SzDH4QW/URgNYgZTkjA4UkwJUgGXng+6DX1zLfmoymdXo17xh5zmRJ6Q42BWCfc2oJfdAr+Yv+AP9Cb7OJ3H/2JG1HNGz/84klThPVCc=);strokeColor=#404040;shadow=1;spacingTop=-1;spacingBottom=-1;spacingLeft=-1;spacingRight=-1;labelBackgroundColor=none;rounded=0;html=1;whiteSpace=wrap;" parent="DUq77rUGLljhwTMfX-Vy-1" vertex="1">
          <mxGeometry x="51" y="201" width="100" height="60" as="geometry" />
        </mxCell>
        <mxCell id="DUq77rUGLljhwTMfX-Vy-44" value="&lt;font style=&quot;font-size:11px;font-family:Calibri;color:#000000;direction:ltr;letter-spacing:0px;line-height:120%;opacity:1&quot;&gt;选择指定舱位&lt;br/&gt;&lt;/font&gt;" style="verticalAlign=middle;align=center;vsdxID=19;fillColor=#f0f0f0;gradientColor=#ffffff;gradientDirection=north;shape=stencil(nZBLDoAgDERP0z3SIyjew0SURgSD+Lu9kMZoXLhwN9O+tukAlrNpJg1SzDH4QW/URgNYgZTkjA4UkwJUgGXng+6DX1zLfmoymdXo17xh5zmRJ6Q42BWCfc2oJfdAr+Yv+AP9Cb7OJ3H/2JG1HNGz/84klThPVCc=);strokeColor=#404040;shadow=1;spacingTop=-1;spacingBottom=-1;spacingLeft=-1;spacingRight=-1;labelBackgroundColor=none;rounded=0;html=1;whiteSpace=wrap;" parent="DUq77rUGLljhwTMfX-Vy-1" vertex="1">
          <mxGeometry x="51" y="321" width="100" height="60" as="geometry" />
        </mxCell>
        <mxCell id="DUq77rUGLljhwTMfX-Vy-45" value="&lt;font style=&quot;font-size:11px;font-family:Calibri;color:#000000;direction:ltr;letter-spacing:0px;line-height:120%;opacity:1&quot;&gt;调用&lt;br/&gt;验价接口&lt;br/&gt;&lt;/font&gt;" style="verticalAlign=middle;align=center;vsdxID=20;fillColor=#f0f0f0;gradientColor=#ffffff;gradientDirection=north;shape=stencil(nZBLDoAgDERP0z3SIyjew0SURgSD+Lu9kMZoXLhwN9O+tukAlrNpJg1SzDH4QW/URgNYgZTkjA4UkwJUgGXng+6DX1zLfmoymdXo17xh5zmRJ6Q42BWCfc2oJfdAr+Yv+AP9Cb7OJ3H/2JG1HNGz/84klThPVCc=);strokeColor=#404040;shadow=1;spacingTop=-1;spacingBottom=-1;spacingLeft=-1;spacingRight=-1;labelBackgroundColor=none;rounded=0;html=1;whiteSpace=wrap;" parent="DUq77rUGLljhwTMfX-Vy-1" vertex="1">
          <mxGeometry x="421" y="321" width="100" height="60" as="geometry" />
        </mxCell>
        <mxCell id="DUq77rUGLljhwTMfX-Vy-46" value="&lt;font style=&quot;font-size:11px;font-family:Calibri;color:#000000;direction:ltr;letter-spacing:0px;line-height:120%;opacity:1&quot;&gt;验证指定舱位报价是否变动&lt;br/&gt;&lt;/font&gt;" style="verticalAlign=middle;align=center;vsdxID=39;fillColor=#f0f0f0;gradientColor=#ffffff;gradientDirection=north;shape=stencil(nZBLDoAgDERP0z3SIyjew0SURgSD+Lu9kMZoXLhwN9O+tukAlrNpJg1SzDH4QW/URgNYgZTkjA4UkwJUgGXng+6DX1zLfmoymdXo17xh5zmRJ6Q42BWCfc2oJfdAr+Yv+AP9Cb7OJ3H/2JG1HNGz/84klThPVCc=);strokeColor=#404040;shadow=1;spacingTop=-1;spacingBottom=-1;spacingLeft=-1;spacingRight=-1;labelBackgroundColor=none;rounded=0;html=1;whiteSpace=wrap;" parent="DUq77rUGLljhwTMfX-Vy-1" vertex="1">
          <mxGeometry x="925" y="321" width="100" height="60" as="geometry" />
        </mxCell>
        <mxCell id="DUq77rUGLljhwTMfX-Vy-47" value="&lt;font style=&quot;font-size:11px;font-family:Calibri;color:#000000;direction:ltr;letter-spacing:0px;line-height:120%;opacity:1&quot;&gt;调用&lt;br/&gt;下单接口&lt;br/&gt;&lt;/font&gt;" style="verticalAlign=middle;align=center;vsdxID=42;fillColor=#f0f0f0;gradientColor=#ffffff;gradientDirection=north;shape=stencil(nZBLDoAgDERP0z3SIyjew0SURgSD+Lu9kMZoXLhwN9O+tukAlrNpJg1SzDH4QW/URgNYgZTkjA4UkwJUgGXng+6DX1zLfmoymdXo17xh5zmRJ6Q42BWCfc2oJfdAr+Yv+AP9Cb7OJ3H/2JG1HNGz/84klThPVCc=);strokeColor=#404040;shadow=1;spacingTop=-1;spacingBottom=-1;spacingLeft=-1;spacingRight=-1;labelBackgroundColor=none;rounded=0;html=1;whiteSpace=wrap;" parent="DUq77rUGLljhwTMfX-Vy-1" vertex="1">
          <mxGeometry x="421" y="601" width="100" height="60" as="geometry" />
        </mxCell>
        <mxCell id="DUq77rUGLljhwTMfX-Vy-48" value="&lt;font style=&quot;font-size:11px;font-family:Calibri;color:#000000;direction:ltr;letter-spacing:0px;line-height:120%;opacity:1&quot;&gt;生成订单数据&lt;br/&gt;&lt;/font&gt;" style="verticalAlign=middle;align=center;vsdxID=44;fillColor=#f0f0f0;gradientColor=#ffffff;gradientDirection=north;shape=stencil(nZBLDoAgDERP0z3SIyjew0SURgSD+Lu9kMZoXLhwN9O+tukAlrNpJg1SzDH4QW/URgNYgZTkjA4UkwJUgGXng+6DX1zLfmoymdXo17xh5zmRJ6Q42BWCfc2oJfdAr+Yv+AP9Cb7OJ3H/2JG1HNGz/84klThPVCc=);strokeColor=#404040;shadow=1;spacingTop=-1;spacingBottom=-1;spacingLeft=-1;spacingRight=-1;labelBackgroundColor=none;rounded=0;html=1;whiteSpace=wrap;" parent="DUq77rUGLljhwTMfX-Vy-1" vertex="1">
          <mxGeometry x="925" y="601" width="100" height="60" as="geometry" />
        </mxCell>
        <mxCell id="DUq77rUGLljhwTMfX-Vy-49" value="&lt;font style=&quot;font-size:11px;font-family:Calibri;color:#000000;direction:ltr;letter-spacing:0px;line-height:120%;opacity:1&quot;&gt;验价处理&lt;br/&gt;&lt;/font&gt;" style="verticalAlign=middle;align=center;vsdxID=49;fillColor=#f0f0f0;gradientColor=#ffffff;gradientDirection=north;shape=stencil(nZBLDoAgDERP0z3SIyjew0SURgSD+Lu9kMZoXLhwN9O+tukAlrNpJg1SzDH4QW/URgNYgZTkjA4UkwJUgGXng+6DX1zLfmoymdXo17xh5zmRJ6Q42BWCfc2oJfdAr+Yv+AP9Cb7OJ3H/2JG1HNGz/84klThPVCc=);strokeColor=#404040;shadow=1;spacingTop=-1;spacingBottom=-1;spacingLeft=-1;spacingRight=-1;labelBackgroundColor=none;rounded=0;html=1;whiteSpace=wrap;" parent="DUq77rUGLljhwTMfX-Vy-1" vertex="1">
          <mxGeometry x="421" y="401" width="100" height="60" as="geometry" />
        </mxCell>
        <mxCell id="DUq77rUGLljhwTMfX-Vy-50" value="&lt;font style=&quot;font-size:11px;font-family:Calibri;color:#000000;direction:ltr;letter-spacing:0px;line-height:120%;opacity:1&quot;&gt;提示用户&lt;br/&gt;价格变动&lt;br/&gt;重新查询航班信息&lt;br/&gt;&lt;/font&gt;" style="verticalAlign=middle;align=center;vsdxID=50;fillColor=#f0f0f0;gradientColor=#ffffff;gradientDirection=north;shape=stencil(nZBLDoAgDERP0z3SIyjew0SURgSD+Lu9kMZoXLhwN9O+tukAlrNpJg1SzDH4QW/URgNYgZTkjA4UkwJUgGXng+6DX1zLfmoymdXo17xh5zmRJ6Q42BWCfc2oJfdAr+Yv+AP9Cb7OJ3H/2JG1HNGz/84klThPVCc=);strokeColor=#404040;shadow=1;spacingTop=-1;spacingBottom=-1;spacingLeft=-1;spacingRight=-1;labelBackgroundColor=none;rounded=0;html=1;whiteSpace=wrap;" parent="DUq77rUGLljhwTMfX-Vy-1" vertex="1">
          <mxGeometry x="51" y="401" width="100" height="60" as="geometry" />
        </mxCell>
        <mxCell id="DUq77rUGLljhwTMfX-Vy-51" value="&lt;font style=&quot;font-size:11px;font-family:Calibri;color:#000000;direction:ltr;letter-spacing:0px;line-height:120%;opacity:1&quot;&gt;展示&lt;br/&gt;下单填写界面&lt;br/&gt;&lt;/font&gt;" style="verticalAlign=middle;align=center;vsdxID=53;fillColor=#f0f0f0;gradientColor=#ffffff;gradientDirection=north;shape=stencil(nZBLDoAgDERP0z3SIyjew0SURgSD+Lu9kMZoXLhwN9O+tukAlrNpJg1SzDH4QW/URgNYgZTkjA4UkwJUgGXng+6DX1zLfmoymdXo17xh5zmRJ6Q42BWCfc2oJfdAr+Yv+AP9Cb7OJ3H/2JG1HNGz/84klThPVCc=);strokeColor=#404040;shadow=1;spacingTop=-1;spacingBottom=-1;spacingLeft=-1;spacingRight=-1;labelBackgroundColor=none;rounded=0;html=1;whiteSpace=wrap;" parent="DUq77rUGLljhwTMfX-Vy-1" vertex="1">
          <mxGeometry x="51" y="481" width="100" height="60" as="geometry" />
        </mxCell>
        <mxCell id="DUq77rUGLljhwTMfX-Vy-52" value="&lt;font style=&quot;font-size:11px;font-family:Calibri;color:#000000;direction:ltr;letter-spacing:0px;line-height:120%;opacity:1&quot;&gt;用户&lt;br/&gt;填写信息下单&lt;br/&gt;&lt;/font&gt;" style="verticalAlign=middle;align=center;vsdxID=54;fillColor=#f0f0f0;gradientColor=#ffffff;gradientDirection=north;shape=stencil(nZBLDoAgDERP0z3SIyjew0SURgSD+Lu9kMZoXLhwN9O+tukAlrNpJg1SzDH4QW/URgNYgZTkjA4UkwJUgGXng+6DX1zLfmoymdXo17xh5zmRJ6Q42BWCfc2oJfdAr+Yv+AP9Cb7OJ3H/2JG1HNGz/84klThPVCc=);strokeColor=#404040;shadow=1;spacingTop=-1;spacingBottom=-1;spacingLeft=-1;spacingRight=-1;labelBackgroundColor=none;rounded=0;html=1;whiteSpace=wrap;" parent="DUq77rUGLljhwTMfX-Vy-1" vertex="1">
          <mxGeometry x="51" y="601" width="100" height="60" as="geometry" />
        </mxCell>
        <mxCell id="DUq77rUGLljhwTMfX-Vy-53" value="&lt;font style=&quot;font-size:11px;font-family:Calibri;color:#000000;direction:ltr;letter-spacing:0px;line-height:120%;opacity:1&quot;&gt;通知用户下单信息&lt;br/&gt;&lt;/font&gt;" style="verticalAlign=middle;align=center;vsdxID=56;fillColor=#f0f0f0;gradientColor=#ffffff;gradientDirection=north;shape=stencil(nZBLDoAgDERP0z3SIyjew0SURgSD+Lu9kMZoXLhwN9O+tukAlrNpJg1SzDH4QW/URgNYgZTkjA4UkwJUgGXng+6DX1zLfmoymdXo17xh5zmRJ6Q42BWCfc2oJfdAr+Yv+AP9Cb7OJ3H/2JG1HNGz/84klThPVCc=);strokeColor=#404040;shadow=1;spacingTop=-1;spacingBottom=-1;spacingLeft=-1;spacingRight=-1;labelBackgroundColor=none;rounded=0;html=1;whiteSpace=wrap;" parent="DUq77rUGLljhwTMfX-Vy-1" vertex="1">
          <mxGeometry x="421" y="691" width="100" height="60" as="geometry" />
        </mxCell>
        <mxCell id="DUq77rUGLljhwTMfX-Vy-54" value="&lt;font style=&quot;font-size:11px;font-family:Calibri;color:#000000;direction:ltr;letter-spacing:0px;line-height:120%;opacity:1&quot;&gt;调用&lt;br/&gt;出票申请接口&lt;br/&gt;&lt;/font&gt;" style="verticalAlign=middle;align=center;vsdxID=58;fillColor=#f0f0f0;gradientColor=#ffffff;gradientDirection=north;shape=stencil(nZBLDoAgDERP0z3SIyjew0SURgSD+Lu9kMZoXLhwN9O+tukAlrNpJg1SzDH4QW/URgNYgZTkjA4UkwJUgGXng+6DX1zLfmoymdXo17xh5zmRJ6Q42BWCfc2oJfdAr+Yv+AP9Cb7OJ3H/2JG1HNGz/84klThPVCc=);strokeColor=#404040;shadow=1;spacingTop=-1;spacingBottom=-1;spacingLeft=-1;spacingRight=-1;labelBackgroundColor=none;rounded=0;html=1;whiteSpace=wrap;" parent="DUq77rUGLljhwTMfX-Vy-1" vertex="1">
          <mxGeometry x="421" y="825" width="100" height="60" as="geometry" />
        </mxCell>
        <mxCell id="DUq77rUGLljhwTMfX-Vy-55" value="&lt;font style=&quot;font-size:11px;font-family:Calibri;color:#000000;direction:ltr;letter-spacing:0px;line-height:120%;opacity:1&quot;&gt;展示&lt;br/&gt;下单失败原因&lt;br/&gt;&lt;/font&gt;" style="verticalAlign=middle;align=center;vsdxID=60;fillColor=#f0f0f0;gradientColor=#ffffff;gradientDirection=north;shape=stencil(nZBLDoAgDERP0z3SIyjew0SURgSD+Lu9kMZoXLhwN9O+tukAlrNpJg1SzDH4QW/URgNYgZTkjA4UkwJUgGXng+6DX1zLfmoymdXo17xh5zmRJ6Q42BWCfc2oJfdAr+Yv+AP9Cb7OJ3H/2JG1HNGz/84klThPVCc=);strokeColor=#404040;shadow=1;spacingTop=-1;spacingBottom=-1;spacingLeft=-1;spacingRight=-1;labelBackgroundColor=none;rounded=0;html=1;whiteSpace=wrap;" parent="DUq77rUGLljhwTMfX-Vy-1" vertex="1">
          <mxGeometry x="51" y="691" width="100" height="60" as="geometry" />
        </mxCell>
        <mxCell id="DUq77rUGLljhwTMfX-Vy-56" value="&lt;font style=&quot;font-size:11px;font-family:Calibri;color:#000000;direction:ltr;letter-spacing:0px;line-height:120%;opacity:1&quot;&gt;出票申请受理&lt;br/&gt;&lt;/font&gt;" style="verticalAlign=middle;align=center;vsdxID=62;fillColor=#f0f0f0;gradientColor=#ffffff;gradientDirection=north;shape=stencil(nZBLDoAgDERP0z3SIyjew0SURgSD+Lu9kMZoXLhwN9O+tukAlrNpJg1SzDH4QW/URgNYgZTkjA4UkwJUgGXng+6DX1zLfmoymdXo17xh5zmRJ6Q42BWCfc2oJfdAr+Yv+AP9Cb7OJ3H/2JG1HNGz/84klThPVCc=);strokeColor=#404040;shadow=1;spacingTop=-1;spacingBottom=-1;spacingLeft=-1;spacingRight=-1;labelBackgroundColor=none;rounded=0;html=1;whiteSpace=wrap;" parent="DUq77rUGLljhwTMfX-Vy-1" vertex="1">
          <mxGeometry x="911" y="825" width="100" height="60" as="geometry" />
        </mxCell>
        <mxCell id="DUq77rUGLljhwTMfX-Vy-57" value="&lt;font style=&quot;font-size:11px;font-family:Calibri;color:#000000;direction:ltr;letter-spacing:0px;line-height:120%;opacity:1&quot;&gt;出票处理&lt;br/&gt;&lt;/font&gt;" style="verticalAlign=middle;align=center;vsdxID=64;fillColor=#f0f0f0;gradientColor=#ffffff;gradientDirection=north;shape=stencil(nZBLDoAgDERP0z3SIyjew0SURgSD+Lu9kMZoXLhwN9O+tukAlrNpJg1SzDH4QW/URgNYgZTkjA4UkwJUgGXng+6DX1zLfmoymdXo17xh5zmRJ6Q42BWCfc2oJfdAr+Yv+AP9Cb7OJ3H/2JG1HNGz/84klThPVCc=);strokeColor=#404040;shadow=1;spacingTop=-1;spacingBottom=-1;spacingLeft=-1;spacingRight=-1;labelBackgroundColor=none;rounded=0;html=1;whiteSpace=wrap;" parent="DUq77rUGLljhwTMfX-Vy-1" vertex="1">
          <mxGeometry x="911" y="1031" width="100" height="60" as="geometry" />
        </mxCell>
        <mxCell id="DUq77rUGLljhwTMfX-Vy-58" value="&lt;font style=&quot;font-size:11px;font-family:Calibri;color:#000000;direction:ltr;letter-spacing:0px;line-height:120%;opacity:1&quot;&gt;处理&lt;br/&gt;出票申请受理结果&lt;br/&gt;&lt;/font&gt;" style="verticalAlign=middle;align=center;vsdxID=66;fillColor=#f0f0f0;gradientColor=#ffffff;gradientDirection=north;shape=stencil(nZBLDoAgDERP0z3SIyjew0SURgSD+Lu9kMZoXLhwN9O+tukAlrNpJg1SzDH4QW/URgNYgZTkjA4UkwJUgGXng+6DX1zLfmoymdXo17xh5zmRJ6Q42BWCfc2oJfdAr+Yv+AP9Cb7OJ3H/2JG1HNGz/84klThPVCc=);strokeColor=#404040;shadow=1;spacingTop=-1;spacingBottom=-1;spacingLeft=-1;spacingRight=-1;labelBackgroundColor=none;rounded=0;html=1;whiteSpace=wrap;" parent="DUq77rUGLljhwTMfX-Vy-1" vertex="1">
          <mxGeometry x="421" y="911" width="100" height="60" as="geometry" />
        </mxCell>
        <mxCell id="DUq77rUGLljhwTMfX-Vy-59" value="&lt;font style=&quot;font-size:11px;font-family:Calibri;color:#000000;direction:ltr;letter-spacing:0px;line-height:120%;opacity:1&quot;&gt;展示&lt;br/&gt;申请受理结果&lt;br/&gt;&lt;/font&gt;" style="verticalAlign=middle;align=center;vsdxID=67;fillColor=#f0f0f0;gradientColor=#ffffff;gradientDirection=north;shape=stencil(nZBLDoAgDERP0z3SIyjew0SURgSD+Lu9kMZoXLhwN9O+tukAlrNpJg1SzDH4QW/URgNYgZTkjA4UkwJUgGXng+6DX1zLfmoymdXo17xh5zmRJ6Q42BWCfc2oJfdAr+Yv+AP9Cb7OJ3H/2JG1HNGz/84klThPVCc=);strokeColor=#404040;shadow=1;spacingTop=-1;spacingBottom=-1;spacingLeft=-1;spacingRight=-1;labelBackgroundColor=none;rounded=0;html=1;whiteSpace=wrap;" parent="DUq77rUGLljhwTMfX-Vy-1" vertex="1">
          <mxGeometry x="51" y="911" width="100" height="60" as="geometry" />
        </mxCell>
        <mxCell id="DUq77rUGLljhwTMfX-Vy-60" value="&lt;font style=&quot;font-size:11px;font-family:Calibri;color:#000000;direction:ltr;letter-spacing:0px;line-height:120%;opacity:1&quot;&gt;处理&lt;br/&gt;出票结果&lt;br/&gt;&lt;/font&gt;" style="verticalAlign=middle;align=center;vsdxID=9;fillColor=#f0f0f0;gradientColor=#ffffff;gradientDirection=north;shape=stencil(nZBLDoAgDERP0z3SIyjew0SURgSD+Lu9kMZoXLhwN9O+tukAlrNpJg1SzDH4QW/URgNYgZTkjA4UkwJUgGXng+6DX1zLfmoymdXo17xh5zmRJ6Q42BWCfc2oJfdAr+Yv+AP9Cb7OJ3H/2JG1HNGz/84klThPVCc=);strokeColor=#404040;shadow=1;spacingTop=-1;spacingBottom=-1;spacingLeft=-1;spacingRight=-1;labelBackgroundColor=none;rounded=0;html=1;whiteSpace=wrap;" parent="DUq77rUGLljhwTMfX-Vy-1" vertex="1">
          <mxGeometry x="421" y="1031" width="100" height="60" as="geometry" />
        </mxCell>
        <mxCell id="DUq77rUGLljhwTMfX-Vy-61" value="&lt;font style=&quot;font-size:11px;font-family:Calibri;color:#000000;direction:ltr;letter-spacing:0px;line-height:120%;opacity:1&quot;&gt;手机短信&lt;br/&gt;&lt;/font&gt;" style="verticalAlign=middle;align=center;vsdxID=69;fillColor=#f0f0f0;gradientColor=#ffffff;gradientDirection=north;shape=stencil(nZBLDoAgDERP0z3SIyjew0SURgSD+Lu9kMZoXLhwN9O+tukAlrNpJg1SzDH4QW/URgNYgZTkjA4UkwJUgGXng+6DX1zLfmoymdXo17xh5zmRJ6Q42BWCfc2oJfdAr+Yv+AP9Cb7OJ3H/2JG1HNGz/84klThPVCc=);strokeColor=#404040;shadow=1;spacingTop=-1;spacingBottom=-1;spacingLeft=-1;spacingRight=-1;labelBackgroundColor=none;rounded=0;html=1;whiteSpace=wrap;" parent="DUq77rUGLljhwTMfX-Vy-1" vertex="1">
          <mxGeometry x="51" y="1031" width="100" height="60" as="geometry" />
        </mxCell>
        <mxCell id="DUq77rUGLljhwTMfX-Vy-62" value="&lt;font style=&quot;font-size:11px;font-family:Calibri;color:#000000;direction:ltr;letter-spacing:0px;line-height:120%;opacity:1&quot;&gt;退票申请&lt;br/&gt;&lt;/font&gt;" style="verticalAlign=middle;align=center;vsdxID=75;fillColor=#f0f0f0;gradientColor=#ffffff;gradientDirection=north;shape=stencil(nZBLDoAgDERP0z3SIyjew0SURgSD+Lu9kMZoXLhwN9O+tukAlrNpJg1SzDH4QW/URgNYgZTkjA4UkwJUgGXng+6DX1zLfmoymdXo17xh5zmRJ6Q42BWCfc2oJfdAr+Yv+AP9Cb7OJ3H/2JG1HNGz/84klThPVCc=);strokeColor=#404040;shadow=1;spacingTop=-1;spacingBottom=-1;spacingLeft=-1;spacingRight=-1;labelBackgroundColor=none;rounded=0;html=1;whiteSpace=wrap;" parent="DUq77rUGLljhwTMfX-Vy-1" vertex="1">
          <mxGeometry x="51" y="1201" width="100" height="60" as="geometry" />
        </mxCell>
        <mxCell id="DUq77rUGLljhwTMfX-Vy-63" value="&lt;font style=&quot;font-size:11px;font-family:Calibri;color:#000000;direction:ltr;letter-spacing:0px;line-height:120%;opacity:1&quot;&gt;调用&lt;br/&gt;退票申请接口&lt;br/&gt;&lt;/font&gt;" style="verticalAlign=middle;align=center;vsdxID=76;fillColor=#f0f0f0;gradientColor=#ffffff;gradientDirection=north;shape=stencil(nZBLDoAgDERP0z3SIyjew0SURgSD+Lu9kMZoXLhwN9O+tukAlrNpJg1SzDH4QW/URgNYgZTkjA4UkwJUgGXng+6DX1zLfmoymdXo17xh5zmRJ6Q42BWCfc2oJfdAr+Yv+AP9Cb7OJ3H/2JG1HNGz/84klThPVCc=);strokeColor=#404040;shadow=1;spacingTop=-1;spacingBottom=-1;spacingLeft=-1;spacingRight=-1;labelBackgroundColor=none;rounded=0;html=1;whiteSpace=wrap;" parent="DUq77rUGLljhwTMfX-Vy-1" vertex="1">
          <mxGeometry x="421" y="1201" width="100" height="60" as="geometry" />
        </mxCell>
        <mxCell id="DUq77rUGLljhwTMfX-Vy-64" value="&lt;font style=&quot;font-size:11px;font-family:Calibri;color:#000000;direction:ltr;letter-spacing:0px;line-height:120%;opacity:1&quot;&gt;退票申请受理&lt;br/&gt;&lt;/font&gt;" style="verticalAlign=middle;align=center;vsdxID=78;fillColor=#f0f0f0;gradientColor=#ffffff;gradientDirection=north;shape=stencil(nZBLDoAgDERP0z3SIyjew0SURgSD+Lu9kMZoXLhwN9O+tukAlrNpJg1SzDH4QW/URgNYgZTkjA4UkwJUgGXng+6DX1zLfmoymdXo17xh5zmRJ6Q42BWCfc2oJfdAr+Yv+AP9Cb7OJ3H/2JG1HNGz/84klThPVCc=);strokeColor=#404040;shadow=1;spacingTop=-1;spacingBottom=-1;spacingLeft=-1;spacingRight=-1;labelBackgroundColor=none;rounded=0;html=1;whiteSpace=wrap;" parent="DUq77rUGLljhwTMfX-Vy-1" vertex="1">
          <mxGeometry x="911" y="1201" width="100" height="60" as="geometry" />
        </mxCell>
        <mxCell id="DUq77rUGLljhwTMfX-Vy-65" value="&lt;font style=&quot;font-size:11px;font-family:Calibri;color:#000000;direction:ltr;letter-spacing:0px;line-height:120%;opacity:1&quot;&gt;处理&lt;br/&gt;退票申请受理结果&lt;br/&gt;&lt;/font&gt;" style="verticalAlign=middle;align=center;vsdxID=80;fillColor=#f0f0f0;gradientColor=#ffffff;gradientDirection=north;shape=stencil(nZBLDoAgDERP0z3SIyjew0SURgSD+Lu9kMZoXLhwN9O+tukAlrNpJg1SzDH4QW/URgNYgZTkjA4UkwJUgGXng+6DX1zLfmoymdXo17xh5zmRJ6Q42BWCfc2oJfdAr+Yv+AP9Cb7OJ3H/2JG1HNGz/84klThPVCc=);strokeColor=#404040;shadow=1;spacingTop=-1;spacingBottom=-1;spacingLeft=-1;spacingRight=-1;labelBackgroundColor=none;rounded=0;html=1;whiteSpace=wrap;" parent="DUq77rUGLljhwTMfX-Vy-1" vertex="1">
          <mxGeometry x="421" y="1295" width="100" height="60" as="geometry" />
        </mxCell>
        <mxCell id="DUq77rUGLljhwTMfX-Vy-66" value="&lt;font style=&quot;font-size:11px;font-family:Calibri;color:#000000;direction:ltr;letter-spacing:0px;line-height:120%;opacity:1&quot;&gt;展示&lt;br/&gt;退票申请受理结果&lt;br/&gt;&lt;/font&gt;" style="verticalAlign=middle;align=center;vsdxID=82;fillColor=#f0f0f0;gradientColor=#ffffff;gradientDirection=north;shape=stencil(nZBLDoAgDERP0z3SIyjew0SURgSD+Lu9kMZoXLhwN9O+tukAlrNpJg1SzDH4QW/URgNYgZTkjA4UkwJUgGXng+6DX1zLfmoymdXo17xh5zmRJ6Q42BWCfc2oJfdAr+Yv+AP9Cb7OJ3H/2JG1HNGz/84klThPVCc=);strokeColor=#404040;shadow=1;spacingTop=-1;spacingBottom=-1;spacingLeft=-1;spacingRight=-1;labelBackgroundColor=none;rounded=0;html=1;whiteSpace=wrap;" parent="DUq77rUGLljhwTMfX-Vy-1" vertex="1">
          <mxGeometry x="51" y="1295" width="100" height="60" as="geometry" />
        </mxCell>
        <mxCell id="DUq77rUGLljhwTMfX-Vy-67" value="&lt;font style=&quot;font-size:11px;font-family:Calibri;color:#000000;direction:ltr;letter-spacing:0px;line-height:120%;opacity:1&quot;&gt;退票处理&lt;br/&gt;&lt;/font&gt;" style="verticalAlign=middle;align=center;vsdxID=84;fillColor=#f0f0f0;gradientColor=#ffffff;gradientDirection=north;shape=stencil(nZBLDoAgDERP0z3SIyjew0SURgSD+Lu9kMZoXLhwN9O+tukAlrNpJg1SzDH4QW/URgNYgZTkjA4UkwJUgGXng+6DX1zLfmoymdXo17xh5zmRJ6Q42BWCfc2oJfdAr+Yv+AP9Cb7OJ3H/2JG1HNGz/84klThPVCc=);strokeColor=#404040;shadow=1;spacingTop=-1;spacingBottom=-1;spacingLeft=-1;spacingRight=-1;labelBackgroundColor=none;rounded=0;html=1;whiteSpace=wrap;" parent="DUq77rUGLljhwTMfX-Vy-1" vertex="1">
          <mxGeometry x="911" y="1391" width="100" height="60" as="geometry" />
        </mxCell>
        <mxCell id="DUq77rUGLljhwTMfX-Vy-68" value="&lt;font style=&quot;font-size:11px;font-family:Calibri;color:#000000;direction:ltr;letter-spacing:0px;line-height:120%;opacity:1&quot;&gt;处理&lt;br/&gt;退票结果&lt;br/&gt;&lt;/font&gt;" style="verticalAlign=middle;align=center;vsdxID=86;fillColor=#f0f0f0;gradientColor=#ffffff;gradientDirection=north;shape=stencil(nZBLDoAgDERP0z3SIyjew0SURgSD+Lu9kMZoXLhwN9O+tukAlrNpJg1SzDH4QW/URgNYgZTkjA4UkwJUgGXng+6DX1zLfmoymdXo17xh5zmRJ6Q42BWCfc2oJfdAr+Yv+AP9Cb7OJ3H/2JG1HNGz/84klThPVCc=);strokeColor=#404040;shadow=1;spacingTop=-1;spacingBottom=-1;spacingLeft=-1;spacingRight=-1;labelBackgroundColor=none;rounded=0;html=1;whiteSpace=wrap;" parent="DUq77rUGLljhwTMfX-Vy-1" vertex="1">
          <mxGeometry x="421" y="1391" width="100" height="60" as="geometry" />
        </mxCell>
        <mxCell id="DUq77rUGLljhwTMfX-Vy-69" value="&lt;font style=&quot;font-size:11px;font-family:Calibri;color:#000000;direction:ltr;letter-spacing:0px;line-height:120%;opacity:1&quot;&gt;手机短信&lt;br/&gt;&lt;/font&gt;" style="verticalAlign=middle;align=center;vsdxID=88;fillColor=#f0f0f0;gradientColor=#ffffff;gradientDirection=north;shape=stencil(nZBLDoAgDERP0z3SIyjew0SURgSD+Lu9kMZoXLhwN9O+tukAlrNpJg1SzDH4QW/URgNYgZTkjA4UkwJUgGXng+6DX1zLfmoymdXo17xh5zmRJ6Q42BWCfc2oJfdAr+Yv+AP9Cb7OJ3H/2JG1HNGz/84klThPVCc=);strokeColor=#404040;shadow=1;spacingTop=-1;spacingBottom=-1;spacingLeft=-1;spacingRight=-1;labelBackgroundColor=none;rounded=0;html=1;whiteSpace=wrap;" parent="DUq77rUGLljhwTMfX-Vy-1" vertex="1">
          <mxGeometry x="51" y="1391" width="100" height="60" as="geometry" />
        </mxCell>
        <mxCell id="DUq77rUGLljhwTMfX-Vy-70" value="&lt;font style=&quot;font-size:11px;font-family:Calibri;color:#000000;direction:ltr;letter-spacing:0px;line-height:120%;opacity:1&quot;&gt;改签申请&lt;br/&gt;&lt;/font&gt;" style="verticalAlign=middle;align=center;vsdxID=93;fillColor=#f0f0f0;gradientColor=#ffffff;gradientDirection=north;shape=stencil(nZBLDoAgDERP0z3SIyjew0SURgSD+Lu9kMZoXLhwN9O+tukAlrNpJg1SzDH4QW/URgNYgZTkjA4UkwJUgGXng+6DX1zLfmoymdXo17xh5zmRJ6Q42BWCfc2oJfdAr+Yv+AP9Cb7OJ3H/2JG1HNGz/84klThPVCc=);strokeColor=#404040;shadow=1;spacingTop=-1;spacingBottom=-1;spacingLeft=-1;spacingRight=-1;labelBackgroundColor=none;rounded=0;html=1;whiteSpace=wrap;" parent="DUq77rUGLljhwTMfX-Vy-1" vertex="1">
          <mxGeometry x="51" y="1771" width="100" height="60" as="geometry" />
        </mxCell>
        <mxCell id="DUq77rUGLljhwTMfX-Vy-71" value="&lt;font style=&quot;font-size:11px;font-family:Calibri;color:#000000;direction:ltr;letter-spacing:0px;line-height:120%;opacity:1&quot;&gt;调用&lt;br/&gt;改签申请接口&lt;br/&gt;&lt;/font&gt;" style="verticalAlign=middle;align=center;vsdxID=94;fillColor=#f0f0f0;gradientColor=#ffffff;gradientDirection=north;shape=stencil(nZBLDoAgDERP0z3SIyjew0SURgSD+Lu9kMZoXLhwN9O+tukAlrNpJg1SzDH4QW/URgNYgZTkjA4UkwJUgGXng+6DX1zLfmoymdXo17xh5zmRJ6Q42BWCfc2oJfdAr+Yv+AP9Cb7OJ3H/2JG1HNGz/84klThPVCc=);strokeColor=#404040;shadow=1;spacingTop=-1;spacingBottom=-1;spacingLeft=-1;spacingRight=-1;labelBackgroundColor=none;rounded=0;html=1;whiteSpace=wrap;" parent="DUq77rUGLljhwTMfX-Vy-1" vertex="1">
          <mxGeometry x="425" y="1771" width="100" height="60" as="geometry" />
        </mxCell>
        <mxCell id="DUq77rUGLljhwTMfX-Vy-72" value="&lt;font style=&quot;font-size:11px;font-family:Calibri;color:#000000;direction:ltr;letter-spacing:0px;line-height:120%;opacity:1&quot;&gt;改签申请受理&lt;br/&gt;&lt;/font&gt;" style="verticalAlign=middle;align=center;vsdxID=96;fillColor=#f0f0f0;gradientColor=#ffffff;gradientDirection=north;shape=stencil(nZBLDoAgDERP0z3SIyjew0SURgSD+Lu9kMZoXLhwN9O+tukAlrNpJg1SzDH4QW/URgNYgZTkjA4UkwJUgGXng+6DX1zLfmoymdXo17xh5zmRJ6Q42BWCfc2oJfdAr+Yv+AP9Cb7OJ3H/2JG1HNGz/84klThPVCc=);strokeColor=#404040;shadow=1;spacingTop=-1;spacingBottom=-1;spacingLeft=-1;spacingRight=-1;labelBackgroundColor=none;rounded=0;html=1;whiteSpace=wrap;" parent="DUq77rUGLljhwTMfX-Vy-1" vertex="1">
          <mxGeometry x="911" y="1771" width="100" height="60" as="geometry" />
        </mxCell>
        <mxCell id="DUq77rUGLljhwTMfX-Vy-73" value="&lt;font style=&quot;font-size:11px;font-family:Calibri;color:#000000;direction:ltr;letter-spacing:0px;line-height:120%;opacity:1&quot;&gt;改签补款处理&lt;br/&gt;&lt;/font&gt;" style="verticalAlign=middle;align=center;vsdxID=98;fillColor=#f0f0f0;gradientColor=#ffffff;gradientDirection=north;shape=stencil(nZBLDoAgDERP0z3SIyjew0SURgSD+Lu9kMZoXLhwN9O+tukAlrNpJg1SzDH4QW/URgNYgZTkjA4UkwJUgGXng+6DX1zLfmoymdXo17xh5zmRJ6Q42BWCfc2oJfdAr+Yv+AP9Cb7OJ3H/2JG1HNGz/84klThPVCc=);strokeColor=#404040;shadow=1;spacingTop=-1;spacingBottom=-1;spacingLeft=-1;spacingRight=-1;labelBackgroundColor=none;rounded=0;html=1;whiteSpace=wrap;" parent="DUq77rUGLljhwTMfX-Vy-1" vertex="1">
          <mxGeometry x="911" y="2001" width="100" height="60" as="geometry" />
        </mxCell>
        <mxCell id="DUq77rUGLljhwTMfX-Vy-74" value="&lt;font style=&quot;font-size:11px;font-family:Calibri;color:#000000;direction:ltr;letter-spacing:0px;line-height:120%;opacity:1&quot;&gt;处理&lt;br/&gt;改签申请结果&lt;br/&gt;&lt;/font&gt;" style="verticalAlign=middle;align=center;vsdxID=100;fillColor=#f0f0f0;gradientColor=#ffffff;gradientDirection=north;shape=stencil(nZBLDoAgDERP0z3SIyjew0SURgSD+Lu9kMZoXLhwN9O+tukAlrNpJg1SzDH4QW/URgNYgZTkjA4UkwJUgGXng+6DX1zLfmoymdXo17xh5zmRJ6Q42BWCfc2oJfdAr+Yv+AP9Cb7OJ3H/2JG1HNGz/84klThPVCc=);strokeColor=#404040;shadow=1;spacingTop=-1;spacingBottom=-1;spacingLeft=-1;spacingRight=-1;labelBackgroundColor=none;rounded=0;html=1;whiteSpace=wrap;" parent="DUq77rUGLljhwTMfX-Vy-1" vertex="1">
          <mxGeometry x="425" y="1871" width="100" height="60" as="geometry" />
        </mxCell>
        <mxCell id="DUq77rUGLljhwTMfX-Vy-75" value="&lt;font style=&quot;font-size:11px;font-family:Calibri;color:#000000;direction:ltr;letter-spacing:0px;line-height:120%;opacity:1&quot;&gt;展示&lt;br/&gt;申请受理结果&lt;br/&gt;&lt;/font&gt;" style="verticalAlign=middle;align=center;vsdxID=102;fillColor=#f0f0f0;gradientColor=#ffffff;gradientDirection=north;shape=stencil(nZBLDoAgDERP0z3SIyjew0SURgSD+Lu9kMZoXLhwN9O+tukAlrNpJg1SzDH4QW/URgNYgZTkjA4UkwJUgGXng+6DX1zLfmoymdXo17xh5zmRJ6Q42BWCfc2oJfdAr+Yv+AP9Cb7OJ3H/2JG1HNGz/84klThPVCc=);strokeColor=#404040;shadow=1;spacingTop=-1;spacingBottom=-1;spacingLeft=-1;spacingRight=-1;labelBackgroundColor=none;rounded=0;html=1;whiteSpace=wrap;" parent="DUq77rUGLljhwTMfX-Vy-1" vertex="1">
          <mxGeometry x="51" y="1871" width="100" height="60" as="geometry" />
        </mxCell>
        <mxCell id="DUq77rUGLljhwTMfX-Vy-76" value="&lt;font style=&quot;font-size:11px;font-family:Calibri;color:#000000;direction:ltr;letter-spacing:0px;line-height:120%;opacity:1&quot;&gt;处理&lt;br/&gt;改签补款&lt;br/&gt;&lt;/font&gt;" style="verticalAlign=middle;align=center;vsdxID=104;fillColor=#f0f0f0;gradientColor=#ffffff;gradientDirection=north;shape=stencil(nZBLDoAgDERP0z3SIyjew0SURgSD+Lu9kMZoXLhwN9O+tukAlrNpJg1SzDH4QW/URgNYgZTkjA4UkwJUgGXng+6DX1zLfmoymdXo17xh5zmRJ6Q42BWCfc2oJfdAr+Yv+AP9Cb7OJ3H/2JG1HNGz/84klThPVCc=);strokeColor=#404040;shadow=1;spacingTop=-1;spacingBottom=-1;spacingLeft=-1;spacingRight=-1;labelBackgroundColor=none;rounded=0;html=1;whiteSpace=wrap;" parent="DUq77rUGLljhwTMfX-Vy-1" vertex="1">
          <mxGeometry x="425" y="2001" width="100" height="60" as="geometry" />
        </mxCell>
        <mxCell id="DUq77rUGLljhwTMfX-Vy-77" value="&lt;font style=&quot;font-size:11px;font-family:Calibri;color:#000000;direction:ltr;letter-spacing:0px;line-height:120%;opacity:1&quot;&gt;调用&lt;br/&gt;改签补款确认接口&lt;br/&gt;&lt;/font&gt;" style="verticalAlign=middle;align=center;vsdxID=106;fillColor=#f0f0f0;gradientColor=#ffffff;gradientDirection=north;shape=stencil(nZBLDoAgDERP0z3SIyjew0SURgSD+Lu9kMZoXLhwN9O+tukAlrNpJg1SzDH4QW/URgNYgZTkjA4UkwJUgGXng+6DX1zLfmoymdXo17xh5zmRJ6Q42BWCfc2oJfdAr+Yv+AP9Cb7OJ3H/2JG1HNGz/84klThPVCc=);strokeColor=#404040;shadow=1;spacingTop=-1;spacingBottom=-1;spacingLeft=-1;spacingRight=-1;labelBackgroundColor=none;rounded=0;html=1;whiteSpace=wrap;" parent="DUq77rUGLljhwTMfX-Vy-1" vertex="1">
          <mxGeometry x="425" y="2121" width="100" height="60" as="geometry" />
        </mxCell>
        <mxCell id="DUq77rUGLljhwTMfX-Vy-78" value="&lt;font style=&quot;font-size:11px;font-family:Calibri;color:#000000;direction:ltr;letter-spacing:0px;line-height:120%;opacity:1&quot;&gt;处理&lt;br/&gt;改签补款确认&lt;br/&gt;&lt;/font&gt;" style="verticalAlign=middle;align=center;vsdxID=108;fillColor=#f0f0f0;gradientColor=#ffffff;gradientDirection=north;shape=stencil(nZBLDoAgDERP0z3SIyjew0SURgSD+Lu9kMZoXLhwN9O+tukAlrNpJg1SzDH4QW/URgNYgZTkjA4UkwJUgGXng+6DX1zLfmoymdXo17xh5zmRJ6Q42BWCfc2oJfdAr+Yv+AP9Cb7OJ3H/2JG1HNGz/84klThPVCc=);strokeColor=#404040;shadow=1;spacingTop=-1;spacingBottom=-1;spacingLeft=-1;spacingRight=-1;labelBackgroundColor=none;rounded=0;html=1;whiteSpace=wrap;" parent="DUq77rUGLljhwTMfX-Vy-1" vertex="1">
          <mxGeometry x="911" y="2121" width="100" height="60" as="geometry" />
        </mxCell>
        <mxCell id="DUq77rUGLljhwTMfX-Vy-79" value="&lt;font style=&quot;font-size:11px;font-family:Calibri;color:#000000;direction:ltr;letter-spacing:0px;line-height:120%;opacity:1&quot;&gt;处理&lt;br/&gt;补款确认结果&lt;br/&gt;&lt;/font&gt;" style="verticalAlign=middle;align=center;vsdxID=110;fillColor=#f0f0f0;gradientColor=#ffffff;gradientDirection=north;shape=stencil(nZBLDoAgDERP0z3SIyjew0SURgSD+Lu9kMZoXLhwN9O+tukAlrNpJg1SzDH4QW/URgNYgZTkjA4UkwJUgGXng+6DX1zLfmoymdXo17xh5zmRJ6Q42BWCfc2oJfdAr+Yv+AP9Cb7OJ3H/2JG1HNGz/84klThPVCc=);strokeColor=#404040;shadow=1;spacingTop=-1;spacingBottom=-1;spacingLeft=-1;spacingRight=-1;labelBackgroundColor=none;rounded=0;html=1;whiteSpace=wrap;" parent="DUq77rUGLljhwTMfX-Vy-1" vertex="1">
          <mxGeometry x="425" y="2211" width="100" height="60" as="geometry" />
        </mxCell>
        <mxCell id="DUq77rUGLljhwTMfX-Vy-80" value="&lt;font style=&quot;font-size:11px;font-family:Calibri;color:#000000;direction:ltr;letter-spacing:0px;line-height:120%;opacity:1&quot;&gt;改签处理&lt;br/&gt;&lt;/font&gt;" style="verticalAlign=middle;align=center;vsdxID=112;fillColor=#f0f0f0;gradientColor=#ffffff;gradientDirection=north;shape=stencil(nZBLDoAgDERP0z3SIyjew0SURgSD+Lu9kMZoXLhwN9O+tukAlrNpJg1SzDH4QW/URgNYgZTkjA4UkwJUgGXng+6DX1zLfmoymdXo17xh5zmRJ6Q42BWCfc2oJfdAr+Yv+AP9Cb7OJ3H/2JG1HNGz/84klThPVCc=);strokeColor=#404040;shadow=1;spacingTop=-1;spacingBottom=-1;spacingLeft=-1;spacingRight=-1;labelBackgroundColor=none;rounded=0;html=1;whiteSpace=wrap;" parent="DUq77rUGLljhwTMfX-Vy-1" vertex="1">
          <mxGeometry x="911" y="2293" width="100" height="60" as="geometry" />
        </mxCell>
        <mxCell id="DUq77rUGLljhwTMfX-Vy-81" value="&lt;font style=&quot;font-size:11px;font-family:Calibri;color:#000000;direction:ltr;letter-spacing:0px;line-height:120%;opacity:1&quot;&gt;处理&lt;br/&gt;改签结果&lt;br/&gt;&lt;/font&gt;" style="verticalAlign=middle;align=center;vsdxID=114;fillColor=#f0f0f0;gradientColor=#ffffff;gradientDirection=north;shape=stencil(nZBLDoAgDERP0z3SIyjew0SURgSD+Lu9kMZoXLhwN9O+tukAlrNpJg1SzDH4QW/URgNYgZTkjA4UkwJUgGXng+6DX1zLfmoymdXo17xh5zmRJ6Q42BWCfc2oJfdAr+Yv+AP9Cb7OJ3H/2JG1HNGz/84klThPVCc=);strokeColor=#404040;shadow=1;spacingTop=-1;spacingBottom=-1;spacingLeft=-1;spacingRight=-1;labelBackgroundColor=none;rounded=0;html=1;whiteSpace=wrap;" parent="DUq77rUGLljhwTMfX-Vy-1" vertex="1">
          <mxGeometry x="425" y="2293" width="100" height="60" as="geometry" />
        </mxCell>
        <mxCell id="DUq77rUGLljhwTMfX-Vy-82" value="&lt;font style=&quot;font-size:11px;font-family:Calibri;color:#000000;direction:ltr;letter-spacing:0px;line-height:120%;opacity:1&quot;&gt;手机短信&lt;br/&gt;&lt;/font&gt;" style="verticalAlign=middle;align=center;vsdxID=116;fillColor=#f0f0f0;gradientColor=#ffffff;gradientDirection=north;shape=stencil(nZBLDoAgDERP0z3SIyjew0SURgSD+Lu9kMZoXLhwN9O+tukAlrNpJg1SzDH4QW/URgNYgZTkjA4UkwJUgGXng+6DX1zLfmoymdXo17xh5zmRJ6Q42BWCfc2oJfdAr+Yv+AP9Cb7OJ3H/2JG1HNGz/84klThPVCc=);strokeColor=#404040;shadow=1;spacingTop=-1;spacingBottom=-1;spacingLeft=-1;spacingRight=-1;labelBackgroundColor=none;rounded=0;html=1;whiteSpace=wrap;" parent="DUq77rUGLljhwTMfX-Vy-1" vertex="1">
          <mxGeometry x="41" y="2293" width="100" height="60" as="geometry" />
        </mxCell>
        <mxCell id="DUq77rUGLljhwTMfX-Vy-83" value="&lt;font style=&quot;font-size:11px;font-family:Calibri;color:#000000;direction:ltr;letter-spacing:0px;line-height:120%;opacity:1&quot;&gt;改签航班查询&lt;br/&gt;&lt;/font&gt;" style="verticalAlign=middle;align=center;vsdxID=118;fillColor=#f0f0f0;gradientColor=#ffffff;gradientDirection=north;shape=stencil(nZBLDoAgDERP0z3SIyjew0SURgSD+Lu9kMZoXLhwN9O+tukAlrNpJg1SzDH4QW/URgNYgZTkjA4UkwJUgGXng+6DX1zLfmoymdXo17xh5zmRJ6Q42BWCfc2oJfdAr+Yv+AP9Cb7OJ3H/2JG1HNGz/84klThPVCc=);strokeColor=#404040;shadow=1;spacingTop=-1;spacingBottom=-1;spacingLeft=-1;spacingRight=-1;labelBackgroundColor=none;rounded=0;html=1;whiteSpace=wrap;" parent="DUq77rUGLljhwTMfX-Vy-1" vertex="1">
          <mxGeometry x="51" y="1537" width="100" height="60" as="geometry" />
        </mxCell>
        <mxCell id="DUq77rUGLljhwTMfX-Vy-84" value="&lt;font style=&quot;font-size:11px;font-family:Calibri;color:#000000;direction:ltr;letter-spacing:0px;line-height:120%;opacity:1&quot;&gt;调用&lt;br/&gt;改签航班查询接口&lt;br/&gt;&lt;/font&gt;" style="verticalAlign=middle;align=center;vsdxID=119;fillColor=#f0f0f0;gradientColor=#ffffff;gradientDirection=north;shape=stencil(nZBLDoAgDERP0z3SIyjew0SURgSD+Lu9kMZoXLhwN9O+tukAlrNpJg1SzDH4QW/URgNYgZTkjA4UkwJUgGXng+6DX1zLfmoymdXo17xh5zmRJ6Q42BWCfc2oJfdAr+Yv+AP9Cb7OJ3H/2JG1HNGz/84klThPVCc=);strokeColor=#404040;shadow=1;spacingTop=-1;spacingBottom=-1;spacingLeft=-1;spacingRight=-1;labelBackgroundColor=none;rounded=0;html=1;whiteSpace=wrap;" parent="DUq77rUGLljhwTMfX-Vy-1" vertex="1">
          <mxGeometry x="425" y="1537" width="100" height="60" as="geometry" />
        </mxCell>
        <mxCell id="DUq77rUGLljhwTMfX-Vy-85" value="&lt;font style=&quot;font-size:11px;font-family:Calibri;color:#000000;direction:ltr;letter-spacing:0px;line-height:120%;opacity:1&quot;&gt;查询&lt;br/&gt;可改签的&lt;br/&gt;航班舱位报价信息&lt;br/&gt;&lt;/font&gt;" style="verticalAlign=middle;align=center;vsdxID=121;fillColor=#f0f0f0;gradientColor=#ffffff;gradientDirection=north;shape=stencil(nZBLDoAgDERP0z3SIyjew0SURgSD+Lu9kMZoXLhwN9O+tukAlrNpJg1SzDH4QW/URgNYgZTkjA4UkwJUgGXng+6DX1zLfmoymdXo17xh5zmRJ6Q42BWCfc2oJfdAr+Yv+AP9Cb7OJ3H/2JG1HNGz/84klThPVCc=);strokeColor=#404040;shadow=1;spacingTop=-1;spacingBottom=-1;spacingLeft=-1;spacingRight=-1;labelBackgroundColor=none;rounded=0;html=1;whiteSpace=wrap;" parent="DUq77rUGLljhwTMfX-Vy-1" vertex="1">
          <mxGeometry x="911" y="1537" width="100" height="60" as="geometry" />
        </mxCell>
        <mxCell id="DUq77rUGLljhwTMfX-Vy-86" value="&lt;font style=&quot;font-size:11px;font-family:Calibri;color:#000000;direction:ltr;letter-spacing:0px;line-height:120%;opacity:1&quot;&gt;返回查询结果&lt;br/&gt;&lt;/font&gt;" style="verticalAlign=middle;align=center;vsdxID=123;fillColor=#f0f0f0;gradientColor=#ffffff;gradientDirection=north;shape=stencil(nZBLDoAgDERP0z3SIyjew0SURgSD+Lu9kMZoXLhwN9O+tukAlrNpJg1SzDH4QW/URgNYgZTkjA4UkwJUgGXng+6DX1zLfmoymdXo17xh5zmRJ6Q42BWCfc2oJfdAr+Yv+AP9Cb7OJ3H/2JG1HNGz/84klThPVCc=);strokeColor=#404040;shadow=1;spacingTop=-1;spacingBottom=-1;spacingLeft=-1;spacingRight=-1;labelBackgroundColor=none;rounded=0;html=1;whiteSpace=wrap;" parent="DUq77rUGLljhwTMfX-Vy-1" vertex="1">
          <mxGeometry x="425" y="1623" width="100" height="60" as="geometry" />
        </mxCell>
        <mxCell id="DUq77rUGLljhwTMfX-Vy-87" value="&lt;font style=&quot;font-size:11px;font-family:Calibri;color:#000000;direction:ltr;letter-spacing:0px;line-height:120%;opacity:1&quot;&gt;展示&lt;br/&gt;查询结果&lt;br/&gt;&lt;/font&gt;" style="verticalAlign=middle;align=center;vsdxID=125;fillColor=#f0f0f0;gradientColor=#ffffff;gradientDirection=north;shape=stencil(nZBLDoAgDERP0z3SIyjew0SURgSD+Lu9kMZoXLhwN9O+tukAlrNpJg1SzDH4QW/URgNYgZTkjA4UkwJUgGXng+6DX1zLfmoymdXo17xh5zmRJ6Q42BWCfc2oJfdAr+Yv+AP9Cb7OJ3H/2JG1HNGz/84klThPVCc=);strokeColor=#404040;shadow=1;spacingTop=-1;spacingBottom=-1;spacingLeft=-1;spacingRight=-1;labelBackgroundColor=none;rounded=0;html=1;whiteSpace=wrap;" parent="DUq77rUGLljhwTMfX-Vy-1" vertex="1">
          <mxGeometry x="51" y="1623" width="100" height="60" as="geometry" />
        </mxCell>
        <mxCell id="DUq77rUGLljhwTMfX-Vy-4" value="&lt;p style=&quot;align:left;margin-left:0;margin-right:0;margin-top:0px;margin-bottom:0px;text-indent:0;valign:middle;direction:ltr;&quot;&gt;&lt;font style=&quot;font-size:16px;font-family:Calibri;color:#000000;direction:ltr;letter-spacing:0px;line-height:120%;opacity:1&quot;&gt;机票企业对接流程图&lt;br/&gt;&lt;/font&gt;&lt;/p&gt;" style="verticalAlign=middle;align=left;vsdxID=26;fillColor=#f0f0f0;gradientColor=#ffffff;gradientDirection=north;shape=stencil(nZBLDoAgDERP0z3SIyjew0SURgSD+Lu9kMZoXLhwN9O+tukAlrNpJg1SzDH4QW/URgNYgZTkjA4UkwJUgGXng+6DX1zLfmoymdXo17xh5zmRJ6Q42BWCfc2oJfdAr+Yv+AP9Cb7OJ3H/2JG1HNGz/84klThPVCc=);strokeColor=#404040;labelBackgroundColor=none;rounded=0;html=1;whiteSpace=wrap;" parent="DUq77rUGLljhwTMfX-Vy-1" vertex="1">
          <mxGeometry x="1" width="1100" height="40" as="geometry" />
        </mxCell>
        <mxCell id="DUq77rUGLljhwTMfX-Vy-20" value="&lt;font style=&quot;font-size:11px;font-family:Calibri;color:#000000;direction:ltr;letter-spacing:0px;line-height:120%;opacity:1&quot;&gt;航班数据查询&lt;br/&gt;&lt;/font&gt;" style="verticalAlign=middle;align=left;vsdxID=3;rotation=270;fillColor=#f0f0f0;gradientColor=#ffffff;gradientDirection=north;shape=stencil(nZBLDoAgDERP0z3SIyjew0SURgSD+Lu9kMZoXLhwN9O+tukAlrNpJg1SzDH4QW/URgNYgZTkjA4UkwJUgGXng+6DX1zLfmoymdXo17xh5zmRJ6Q42BWCfc2oJfdAr+Yv+AP9Cb7OJ3H/2JG1HNGz/84klThPVCc=);strokeColor=#404040;spacingTop=-1;spacingBottom=-1;spacingLeft=-1;spacingRight=-1;labelBackgroundColor=none;rounded=0;html=1;whiteSpace=wrap;" parent="DUq77rUGLljhwTMfX-Vy-1" vertex="1">
          <mxGeometry x="-114" y="156" width="250" height="20" as="geometry" />
        </mxCell>
        <mxCell id="DUq77rUGLljhwTMfX-Vy-88" value="连接线" parent="0" />
        <mxCell id="DUq77rUGLljhwTMfX-Vy-89" value="&lt;p style=&quot;align:center;margin-left:0;margin-right:0;margin-top:0px;margin-bottom:0px;text-indent:0;valign:middle;direction:ltr;&quot;&gt;&lt;font style=&quot;font-size:11px;font-family:Calibri;color:#000000;direction:ltr;letter-spacing:0px;line-height:120%;opacity:1&quot;&gt;选择改签航班舱位&lt;br/&gt;&lt;/font&gt;&lt;/p&gt;" style="vsdxID=127;edgeStyle=none;startArrow=none;endArrow=classic;startSize=5;endSize=5;strokeColor=#000000;spacingTop=0;spacingBottom=0;spacingLeft=0;spacingRight=0;verticalAlign=middle;html=1;labelBackgroundColor=#FFFFFF;rounded=0;align=center;exitX=0.5;exitY=1;exitDx=0;exitDy=0;exitPerimeter=0;entryX=0.5;entryY=0;entryDx=0;entryDy=0;entryPerimeter=0;" parent="DUq77rUGLljhwTMfX-Vy-88" source="DUq77rUGLljhwTMfX-Vy-87" target="DUq77rUGLljhwTMfX-Vy-70" edge="1">
          <mxGeometry relative="1" as="geometry">
            <mxPoint x="10" as="offset" />
            <Array as="points" />
          </mxGeometry>
        </mxCell>
        <mxCell id="DUq77rUGLljhwTMfX-Vy-90" value="&lt;p style=&quot;align:center;margin-left:0;margin-right:0;margin-top:0px;margin-bottom:0px;text-indent:0;valign:middle;direction:ltr;&quot;&gt;&lt;font style=&quot;font-size:11px;font-family:Calibri;color:#000000;direction:ltr;letter-spacing:0px;line-height:120%;opacity:1&quot;&gt;查询返回&lt;br/&gt;&lt;/font&gt;&lt;/p&gt;" style="vsdxID=126;edgeStyle=none;startArrow=none;endArrow=classic;startSize=5;endSize=5;strokeColor=#000000;spacingTop=0;spacingBottom=0;spacingLeft=0;spacingRight=0;verticalAlign=middle;html=1;labelBackgroundColor=#FFFFFF;rounded=0;align=center;exitX=0;exitY=0.5;exitDx=0;exitDy=0;exitPerimeter=0;entryX=1;entryY=0.5;entryDx=0;entryDy=0;entryPerimeter=0;" parent="DUq77rUGLljhwTMfX-Vy-88" source="DUq77rUGLljhwTMfX-Vy-86" target="DUq77rUGLljhwTMfX-Vy-87" edge="1">
          <mxGeometry relative="1" as="geometry">
            <mxPoint as="offset" />
            <Array as="points" />
          </mxGeometry>
        </mxCell>
        <mxCell id="DUq77rUGLljhwTMfX-Vy-91" value="&lt;p style=&quot;align:center;margin-left:0;margin-right:0;margin-top:0px;margin-bottom:0px;text-indent:0;valign:middle;direction:ltr;&quot;&gt;&lt;font style=&quot;font-size:11px;font-family:Calibri;color:#000000;direction:ltr;letter-spacing:0px;line-height:120%;opacity:1&quot;&gt;查询返回&lt;br/&gt;&lt;/font&gt;&lt;/p&gt;" style="vsdxID=124;edgeStyle=none;startArrow=none;endArrow=classic;startSize=5;endSize=5;strokeColor=#000000;spacingTop=0;spacingBottom=0;spacingLeft=0;spacingRight=0;verticalAlign=middle;html=1;labelBackgroundColor=#FFFFFF;rounded=0;align=center;exitX=0.5;exitY=1;exitDx=0;exitDy=0;exitPerimeter=0;entryX=1;entryY=0.5;entryDx=0;entryDy=0;entryPerimeter=0;" parent="DUq77rUGLljhwTMfX-Vy-88" source="DUq77rUGLljhwTMfX-Vy-85" target="DUq77rUGLljhwTMfX-Vy-86" edge="1">
          <mxGeometry relative="1" as="geometry">
            <mxPoint as="offset" />
            <Array as="points">
              <mxPoint x="961" y="1653" />
            </Array>
          </mxGeometry>
        </mxCell>
        <mxCell id="DUq77rUGLljhwTMfX-Vy-92" value="&lt;p style=&quot;align:center;margin-left:0;margin-right:0;margin-top:0px;margin-bottom:0px;text-indent:0;valign:middle;direction:ltr;&quot;&gt;&lt;font style=&quot;font-size:11px;font-family:Calibri;color:#000000;direction:ltr;letter-spacing:0px;line-height:120%;opacity:1&quot;&gt;调用接口&lt;br/&gt;&lt;/font&gt;&lt;/p&gt;" style="vsdxID=122;edgeStyle=none;startArrow=none;endArrow=classic;startSize=5;endSize=5;strokeColor=#000000;spacingTop=0;spacingBottom=0;spacingLeft=0;spacingRight=0;verticalAlign=middle;html=1;labelBackgroundColor=#FFFFFF;rounded=0;align=center;exitX=1;exitY=0.5;exitDx=0;exitDy=0;exitPerimeter=0;entryX=0;entryY=0.5;entryDx=0;entryDy=0;entryPerimeter=0;" parent="DUq77rUGLljhwTMfX-Vy-88" source="DUq77rUGLljhwTMfX-Vy-84" target="DUq77rUGLljhwTMfX-Vy-85" edge="1">
          <mxGeometry relative="1" as="geometry">
            <mxPoint as="offset" />
            <Array as="points" />
          </mxGeometry>
        </mxCell>
        <mxCell id="DUq77rUGLljhwTMfX-Vy-93" value="&lt;p style=&quot;align:center;margin-left:0;margin-right:0;margin-top:0px;margin-bottom:0px;text-indent:0;valign:middle;direction:ltr;&quot;&gt;&lt;font style=&quot;font-size:11px;font-family:Calibri;color:#000000;direction:ltr;letter-spacing:0px;line-height:120%;opacity:1&quot;&gt;提交&lt;br/&gt;&lt;/font&gt;&lt;/p&gt;" style="vsdxID=120;edgeStyle=none;startArrow=none;endArrow=classic;startSize=5;endSize=5;strokeColor=#000000;spacingTop=0;spacingBottom=0;spacingLeft=0;spacingRight=0;verticalAlign=middle;html=1;labelBackgroundColor=#FFFFFF;rounded=0;align=center;exitX=1;exitY=0.5;exitDx=0;exitDy=0;exitPerimeter=0;entryX=0;entryY=0.5;entryDx=0;entryDy=0;entryPerimeter=0;" parent="DUq77rUGLljhwTMfX-Vy-88" source="DUq77rUGLljhwTMfX-Vy-83" target="DUq77rUGLljhwTMfX-Vy-84" edge="1">
          <mxGeometry relative="1" as="geometry">
            <mxPoint as="offset" />
            <Array as="points" />
          </mxGeometry>
        </mxCell>
        <mxCell id="DUq77rUGLljhwTMfX-Vy-94" value="&lt;p style=&quot;align:center;margin-left:0;margin-right:0;margin-top:0px;margin-bottom:0px;text-indent:0;valign:middle;direction:ltr;&quot;&gt;&lt;font style=&quot;font-size:11px;font-family:Calibri;color:#000000;direction:ltr;letter-spacing:0px;line-height:120%;opacity:1&quot;&gt;异步通知&lt;br/&gt;&lt;/font&gt;&lt;/p&gt;" style="vsdxID=117;edgeStyle=none;startArrow=none;endArrow=classic;startSize=5;endSize=5;strokeColor=#000000;spacingTop=0;spacingBottom=0;spacingLeft=0;spacingRight=0;verticalAlign=middle;html=1;labelBackgroundColor=#FFFFFF;rounded=0;align=center;exitX=0;exitY=0.5;exitDx=0;exitDy=0;exitPerimeter=0;entryX=1;entryY=0.5;entryDx=0;entryDy=0;entryPerimeter=0;" parent="DUq77rUGLljhwTMfX-Vy-88" source="DUq77rUGLljhwTMfX-Vy-81" target="DUq77rUGLljhwTMfX-Vy-82" edge="1">
          <mxGeometry relative="1" as="geometry">
            <mxPoint as="offset" />
            <Array as="points" />
          </mxGeometry>
        </mxCell>
        <mxCell id="DUq77rUGLljhwTMfX-Vy-95" value="&lt;p style=&quot;align:center;margin-left:0;margin-right:0;margin-top:0px;margin-bottom:0px;text-indent:0;valign:middle;direction:ltr;&quot;&gt;&lt;font style=&quot;font-size:11px;font-family:Calibri;color:#000000;direction:ltr;letter-spacing:0px;line-height:120%;opacity:1&quot;&gt;异步回调&lt;br/&gt;&lt;/font&gt;&lt;/p&gt;" style="vsdxID=115;edgeStyle=none;startArrow=none;endArrow=classic;startSize=5;endSize=5;strokeColor=#000000;spacingTop=0;spacingBottom=0;spacingLeft=0;spacingRight=0;verticalAlign=middle;html=1;labelBackgroundColor=#FFFFFF;rounded=0;align=center;exitX=0;exitY=0.5;exitDx=0;exitDy=0;exitPerimeter=0;entryX=1;entryY=0.5;entryDx=0;entryDy=0;entryPerimeter=0;" parent="DUq77rUGLljhwTMfX-Vy-88" source="DUq77rUGLljhwTMfX-Vy-80" target="DUq77rUGLljhwTMfX-Vy-81" edge="1">
          <mxGeometry relative="1" as="geometry">
            <mxPoint as="offset" />
            <Array as="points" />
          </mxGeometry>
        </mxCell>
        <mxCell id="DUq77rUGLljhwTMfX-Vy-96" value="&lt;p style=&quot;align:center;margin-left:0;margin-right:0;margin-top:0px;margin-bottom:0px;text-indent:0;valign:middle;direction:ltr;&quot;&gt;&lt;font style=&quot;font-size:11px;font-family:Calibri;color:#000000;direction:ltr;letter-spacing:0px;line-height:120%;opacity:1&quot;&gt;确认结果返回&lt;br/&gt;&lt;/font&gt;&lt;/p&gt;" style="vsdxID=111;edgeStyle=none;startArrow=none;endArrow=classic;startSize=5;endSize=5;strokeColor=#000000;spacingTop=0;spacingBottom=0;spacingLeft=0;spacingRight=0;verticalAlign=middle;html=1;labelBackgroundColor=#FFFFFF;rounded=0;align=center;exitX=0.5;exitY=1;exitDx=0;exitDy=0;exitPerimeter=0;entryX=1;entryY=0.5;entryDx=0;entryDy=0;entryPerimeter=0;" parent="DUq77rUGLljhwTMfX-Vy-88" source="DUq77rUGLljhwTMfX-Vy-78" target="DUq77rUGLljhwTMfX-Vy-79" edge="1">
          <mxGeometry relative="1" as="geometry">
            <mxPoint as="offset" />
            <Array as="points">
              <mxPoint x="961" y="2241" />
            </Array>
          </mxGeometry>
        </mxCell>
        <mxCell id="DUq77rUGLljhwTMfX-Vy-97" value="&lt;p style=&quot;align:center;margin-left:0;margin-right:0;margin-top:0px;margin-bottom:0px;text-indent:0;valign:middle;direction:ltr;&quot;&gt;&lt;font style=&quot;font-size:11px;font-family:Calibri;color:#000000;direction:ltr;letter-spacing:0px;line-height:120%;opacity:1&quot;&gt;调用接口&lt;br/&gt;&lt;/font&gt;&lt;/p&gt;" style="vsdxID=109;edgeStyle=none;startArrow=none;endArrow=classic;startSize=5;endSize=5;strokeColor=#000000;spacingTop=0;spacingBottom=0;spacingLeft=0;spacingRight=0;verticalAlign=middle;html=1;labelBackgroundColor=#FFFFFF;rounded=0;align=center;exitX=1;exitY=0.5;exitDx=0;exitDy=0;exitPerimeter=0;entryX=0;entryY=0.5;entryDx=0;entryDy=0;entryPerimeter=0;" parent="DUq77rUGLljhwTMfX-Vy-88" source="DUq77rUGLljhwTMfX-Vy-77" target="DUq77rUGLljhwTMfX-Vy-78" edge="1">
          <mxGeometry relative="1" as="geometry">
            <mxPoint as="offset" />
            <Array as="points" />
          </mxGeometry>
        </mxCell>
        <mxCell id="DUq77rUGLljhwTMfX-Vy-98" style="vsdxID=107;edgeStyle=none;startArrow=none;endArrow=classic;startSize=5;endSize=5;strokeColor=#404040;spacingTop=0;spacingBottom=0;spacingLeft=0;spacingRight=0;verticalAlign=middle;html=1;labelBackgroundColor=#ffffff;rounded=0;exitX=0.5;exitY=1;exitDx=0;exitDy=0;exitPerimeter=0;entryX=0.5;entryY=0;entryDx=0;entryDy=0;entryPerimeter=0;" parent="DUq77rUGLljhwTMfX-Vy-88" source="DUq77rUGLljhwTMfX-Vy-76" target="DUq77rUGLljhwTMfX-Vy-77" edge="1">
          <mxGeometry relative="1" as="geometry">
            <mxPoint x="10" as="offset" />
            <Array as="points" />
          </mxGeometry>
        </mxCell>
        <mxCell id="DUq77rUGLljhwTMfX-Vy-99" value="&lt;p style=&quot;align:center;margin-left:0;margin-right:0;margin-top:0px;margin-bottom:0px;text-indent:0;valign:middle;direction:ltr;&quot;&gt;&lt;font style=&quot;font-size:11px;font-family:Calibri;color:#000000;direction:ltr;letter-spacing:0px;line-height:120%;opacity:1&quot;&gt;异步回调&lt;br/&gt;&lt;/font&gt;&lt;/p&gt;" style="vsdxID=105;edgeStyle=none;startArrow=none;endArrow=classic;startSize=5;endSize=5;strokeColor=#000000;spacingTop=0;spacingBottom=0;spacingLeft=0;spacingRight=0;verticalAlign=middle;html=1;labelBackgroundColor=#FFFFFF;rounded=0;align=center;exitX=0;exitY=0.5;exitDx=0;exitDy=0;exitPerimeter=0;entryX=1;entryY=0.5;entryDx=0;entryDy=0;entryPerimeter=0;" parent="DUq77rUGLljhwTMfX-Vy-88" source="DUq77rUGLljhwTMfX-Vy-73" target="DUq77rUGLljhwTMfX-Vy-76" edge="1">
          <mxGeometry relative="1" as="geometry">
            <mxPoint as="offset" />
            <Array as="points" />
          </mxGeometry>
        </mxCell>
        <mxCell id="DUq77rUGLljhwTMfX-Vy-100" value="&lt;p style=&quot;align:center;margin-left:0;margin-right:0;margin-top:0px;margin-bottom:0px;text-indent:0;valign:middle;direction:ltr;&quot;&gt;&lt;font style=&quot;font-size:11px;font-family:Calibri;color:#000000;direction:ltr;letter-spacing:0px;line-height:120%;opacity:1&quot;&gt;申请受理结果返回&lt;br/&gt;&lt;/font&gt;&lt;/p&gt;" style="vsdxID=103;edgeStyle=none;startArrow=none;endArrow=classic;startSize=5;endSize=5;strokeColor=#000000;spacingTop=0;spacingBottom=0;spacingLeft=0;spacingRight=0;verticalAlign=middle;html=1;labelBackgroundColor=#FFFFFF;rounded=0;align=center;exitX=0;exitY=0.5;exitDx=0;exitDy=0;exitPerimeter=0;entryX=1;entryY=0.5;entryDx=0;entryDy=0;entryPerimeter=0;" parent="DUq77rUGLljhwTMfX-Vy-88" source="DUq77rUGLljhwTMfX-Vy-74" target="DUq77rUGLljhwTMfX-Vy-75" edge="1">
          <mxGeometry relative="1" as="geometry">
            <mxPoint as="offset" />
            <Array as="points" />
          </mxGeometry>
        </mxCell>
        <mxCell id="DUq77rUGLljhwTMfX-Vy-101" value="&lt;font style=&quot;font-size:11px;font-family:Calibri;color:#000000;direction:ltr;letter-spacing:0px;line-height:120%;opacity:1&quot;&gt;提交&lt;br/&gt;&lt;/font&gt;" style="vsdxID=14;edgeStyle=none;startArrow=none;endArrow=classic;startSize=5;endSize=5;strokeColor=#404040;spacingTop=0;spacingBottom=0;spacingLeft=0;spacingRight=0;verticalAlign=middle;html=1;labelBackgroundColor=#ffffff;rounded=0;align=center;exitX=1;exitY=0.5;exitDx=0;exitDy=0;exitPerimeter=0;entryX=0;entryY=0.5;entryDx=0;entryDy=0;entryPerimeter=0;" parent="DUq77rUGLljhwTMfX-Vy-88" source="DUq77rUGLljhwTMfX-Vy-39" target="DUq77rUGLljhwTMfX-Vy-40" edge="1">
          <mxGeometry relative="1" as="geometry">
            <mxPoint as="offset" />
            <Array as="points" />
          </mxGeometry>
        </mxCell>
        <mxCell id="DUq77rUGLljhwTMfX-Vy-102" value="&lt;p style=&quot;align:center;margin-left:0;margin-right:0;margin-top:0px;margin-bottom:0px;text-indent:0;valign:middle;direction:ltr;&quot;&gt;&lt;font style=&quot;font-size:11px;font-family:Calibri;color:#000000;direction:ltr;letter-spacing:0px;line-height:120%;opacity:1&quot;&gt;查询返回&lt;br/&gt;&lt;/font&gt;&lt;/p&gt;" style="vsdxID=13;edgeStyle=none;startArrow=none;endArrow=classic;startSize=5;endSize=5;strokeColor=#000000;spacingTop=0;spacingBottom=0;spacingLeft=0;spacingRight=0;verticalAlign=middle;html=1;labelBackgroundColor=#FFFFFF;rounded=0;align=center;exitX=0.5;exitY=1;exitDx=0;exitDy=0;exitPerimeter=0;entryX=1;entryY=0.5;entryDx=0;entryDy=0;entryPerimeter=0;" parent="DUq77rUGLljhwTMfX-Vy-88" source="DUq77rUGLljhwTMfX-Vy-41" target="DUq77rUGLljhwTMfX-Vy-42" edge="1">
          <mxGeometry relative="1" as="geometry">
            <mxPoint as="offset" />
            <Array as="points">
              <mxPoint x="971" y="231" />
            </Array>
          </mxGeometry>
        </mxCell>
        <mxCell id="DUq77rUGLljhwTMfX-Vy-103" value="&lt;p style=&quot;align:center;margin-left:0;margin-right:0;margin-top:0px;margin-bottom:0px;text-indent:0;valign:middle;direction:ltr;&quot;&gt;&lt;font style=&quot;font-size:11px;font-family:Calibri;color:#000000;direction:ltr;letter-spacing:0px;line-height:120%;opacity:1&quot;&gt;异步回调&lt;br/&gt;&lt;/font&gt;&lt;/p&gt;" style="vsdxID=10;edgeStyle=none;startArrow=none;endArrow=classic;startSize=5;endSize=5;strokeColor=#000000;spacingTop=0;spacingBottom=0;spacingLeft=0;spacingRight=0;verticalAlign=middle;html=1;labelBackgroundColor=#FFFFFF;rounded=0;align=center;exitX=0;exitY=0.5;exitDx=0;exitDy=0;exitPerimeter=0;entryX=1;entryY=0.5;entryDx=0;entryDy=0;entryPerimeter=0;" parent="DUq77rUGLljhwTMfX-Vy-88" source="DUq77rUGLljhwTMfX-Vy-57" target="DUq77rUGLljhwTMfX-Vy-60" edge="1">
          <mxGeometry relative="1" as="geometry">
            <mxPoint as="offset" />
            <Array as="points" />
          </mxGeometry>
        </mxCell>
        <mxCell id="DUq77rUGLljhwTMfX-Vy-104" value="&lt;p style=&quot;align:center;margin-left:0;margin-right:0;margin-top:0px;margin-bottom:0px;text-indent:0;valign:middle;direction:ltr;&quot;&gt;&lt;font style=&quot;font-size:11px;font-family:Calibri;color:#000000;direction:ltr;letter-spacing:0px;line-height:120%;opacity:1&quot;&gt;异步&lt;br/&gt;&lt;/font&gt;&lt;/p&gt;" style="vsdxID=8;edgeStyle=none;startArrow=none;endArrow=classic;startSize=5;endSize=5;strokeColor=#000000;spacingTop=0;spacingBottom=0;spacingLeft=0;spacingRight=0;verticalAlign=middle;html=1;labelBackgroundColor=#FFFFFF;rounded=0;align=center;exitX=1;exitY=0.5;exitDx=0;exitDy=0;exitPerimeter=0;entryX=1;entryY=0.5;entryDx=0;entryDy=0;entryPerimeter=0;" parent="DUq77rUGLljhwTMfX-Vy-88" source="DUq77rUGLljhwTMfX-Vy-56" target="DUq77rUGLljhwTMfX-Vy-57" edge="1">
          <mxGeometry relative="1" as="geometry">
            <mxPoint x="10" as="offset" />
            <Array as="points">
              <mxPoint x="1041" y="855" />
              <mxPoint x="1041" y="1061" />
            </Array>
          </mxGeometry>
        </mxCell>
        <mxCell id="DUq77rUGLljhwTMfX-Vy-105" value="&lt;p style=&quot;align:center;margin-left:0;margin-right:0;margin-top:0px;margin-bottom:0px;text-indent:0;valign:middle;direction:ltr;&quot;&gt;&lt;font style=&quot;font-size:11px;font-family:Calibri;color:#000000;direction:ltr;letter-spacing:0px;line-height:120%;opacity:1&quot;&gt;调用接口&lt;br/&gt;&lt;/font&gt;&lt;/p&gt;" style="vsdxID=15;edgeStyle=none;startArrow=none;endArrow=classic;startSize=5;endSize=5;strokeColor=#000000;spacingTop=0;spacingBottom=0;spacingLeft=0;spacingRight=0;verticalAlign=middle;html=1;labelBackgroundColor=#FFFFFF;rounded=0;align=center;exitX=1;exitY=0.5;exitDx=0;exitDy=0;exitPerimeter=0;entryX=0;entryY=0.5;entryDx=0;entryDy=0;entryPerimeter=0;" parent="DUq77rUGLljhwTMfX-Vy-88" source="DUq77rUGLljhwTMfX-Vy-40" target="DUq77rUGLljhwTMfX-Vy-41" edge="1">
          <mxGeometry relative="1" as="geometry">
            <mxPoint as="offset" />
            <Array as="points" />
          </mxGeometry>
        </mxCell>
        <mxCell id="DUq77rUGLljhwTMfX-Vy-106" value="&lt;p style=&quot;align:center;margin-left:0;margin-right:0;margin-top:0px;margin-bottom:0px;text-indent:0;valign:middle;direction:ltr;&quot;&gt;&lt;font style=&quot;font-size:11px;font-family:Calibri;color:#000000;direction:ltr;letter-spacing:0px;line-height:120%;opacity:1&quot;&gt;查询返回&lt;br/&gt;&lt;/font&gt;&lt;/p&gt;" style="vsdxID=18;edgeStyle=none;startArrow=none;endArrow=classic;startSize=5;endSize=5;strokeColor=#000000;spacingTop=0;spacingBottom=0;spacingLeft=0;spacingRight=0;verticalAlign=middle;html=1;labelBackgroundColor=#FFFFFF;rounded=0;align=center;exitX=0;exitY=0.5;exitDx=0;exitDy=0;exitPerimeter=0;entryX=1;entryY=0.5;entryDx=0;entryDy=0;entryPerimeter=0;" parent="DUq77rUGLljhwTMfX-Vy-88" source="DUq77rUGLljhwTMfX-Vy-42" target="DUq77rUGLljhwTMfX-Vy-43" edge="1">
          <mxGeometry relative="1" as="geometry">
            <mxPoint as="offset" />
            <Array as="points" />
          </mxGeometry>
        </mxCell>
        <mxCell id="DUq77rUGLljhwTMfX-Vy-107" value="&lt;p style=&quot;align:center;margin-left:0;margin-right:0;margin-top:0px;margin-bottom:0px;text-indent:0;valign:middle;direction:ltr;&quot;&gt;&lt;font style=&quot;font-size:11px;font-family:Calibri;color:#000000;direction:ltr;letter-spacing:0px;line-height:120%;opacity:1&quot;&gt;提交&lt;br/&gt;&lt;/font&gt;&lt;/p&gt;" style="vsdxID=38;edgeStyle=none;startArrow=none;endArrow=classic;startSize=5;endSize=5;strokeColor=#000000;spacingTop=0;spacingBottom=0;spacingLeft=0;spacingRight=0;verticalAlign=middle;html=1;labelBackgroundColor=#FFFFFF;rounded=0;align=center;exitX=1;exitY=0.5;exitDx=0;exitDy=0;exitPerimeter=0;entryX=0;entryY=0.5;entryDx=0;entryDy=0;entryPerimeter=0;" parent="DUq77rUGLljhwTMfX-Vy-88" source="DUq77rUGLljhwTMfX-Vy-44" target="DUq77rUGLljhwTMfX-Vy-45" edge="1">
          <mxGeometry relative="1" as="geometry">
            <mxPoint as="offset" />
            <Array as="points" />
          </mxGeometry>
        </mxCell>
        <mxCell id="DUq77rUGLljhwTMfX-Vy-108" value="&lt;p style=&quot;align:center;margin-left:0;margin-right:0;margin-top:0px;margin-bottom:0px;text-indent:0;valign:middle;direction:ltr;&quot;&gt;&lt;font style=&quot;font-size:11px;font-family:Calibri;color:#000000;direction:ltr;letter-spacing:0px;line-height:120%;opacity:1&quot;&gt;调用接口&lt;br/&gt;&lt;/font&gt;&lt;/p&gt;" style="vsdxID=40;edgeStyle=none;startArrow=none;endArrow=classic;startSize=5;endSize=5;strokeColor=#000000;spacingTop=0;spacingBottom=0;spacingLeft=0;spacingRight=0;verticalAlign=middle;html=1;labelBackgroundColor=#FFFFFF;rounded=0;align=center;exitX=1;exitY=0.5;exitDx=0;exitDy=0;exitPerimeter=0;entryX=0;entryY=0.5;entryDx=0;entryDy=0;entryPerimeter=0;" parent="DUq77rUGLljhwTMfX-Vy-88" source="DUq77rUGLljhwTMfX-Vy-45" target="DUq77rUGLljhwTMfX-Vy-46" edge="1">
          <mxGeometry relative="1" as="geometry">
            <mxPoint as="offset" />
            <Array as="points" />
          </mxGeometry>
        </mxCell>
        <mxCell id="DUq77rUGLljhwTMfX-Vy-109" style="vsdxID=41;edgeStyle=none;startArrow=none;endArrow=classic;startSize=5;endSize=5;strokeColor=#000000;spacingTop=0;spacingBottom=0;spacingLeft=0;spacingRight=0;verticalAlign=middle;html=1;labelBackgroundColor=#FFFFFF;rounded=0;exitX=0.5;exitY=1;exitDx=0;exitDy=0;exitPerimeter=0;entryX=0.5;entryY=0;entryDx=0;entryDy=0;entryPerimeter=0;" parent="DUq77rUGLljhwTMfX-Vy-88" source="DUq77rUGLljhwTMfX-Vy-43" target="DUq77rUGLljhwTMfX-Vy-44" edge="1">
          <mxGeometry relative="1" as="geometry">
            <mxPoint x="10" as="offset" />
            <Array as="points" />
          </mxGeometry>
        </mxCell>
        <mxCell id="DUq77rUGLljhwTMfX-Vy-110" value="&lt;p style=&quot;align:center;margin-left:0;margin-right:0;margin-top:0px;margin-bottom:0px;text-indent:0;valign:middle;direction:ltr;&quot;&gt;&lt;font style=&quot;font-size:11px;font-family:Calibri;color:#000000;direction:ltr;letter-spacing:0px;line-height:120%;opacity:1&quot;&gt;验价返回&lt;br/&gt;&lt;/font&gt;&lt;/p&gt;" style="vsdxID=43;edgeStyle=none;startArrow=none;endArrow=classic;startSize=5;endSize=5;strokeColor=#000000;spacingTop=0;spacingBottom=0;spacingLeft=0;spacingRight=0;verticalAlign=middle;html=1;labelBackgroundColor=#FFFFFF;rounded=0;align=center;exitX=0.5;exitY=1;exitDx=0;exitDy=0;exitPerimeter=0;entryX=1;entryY=0.5;entryDx=0;entryDy=0;entryPerimeter=0;" parent="DUq77rUGLljhwTMfX-Vy-88" source="DUq77rUGLljhwTMfX-Vy-46" target="DUq77rUGLljhwTMfX-Vy-49" edge="1">
          <mxGeometry relative="1" as="geometry">
            <mxPoint as="offset" />
            <Array as="points">
              <mxPoint x="975" y="431" />
            </Array>
          </mxGeometry>
        </mxCell>
        <mxCell id="DUq77rUGLljhwTMfX-Vy-111" value="&lt;p style=&quot;align:center;margin-left:0;margin-right:0;margin-top:0px;margin-bottom:0px;text-indent:0;valign:middle;direction:ltr;&quot;&gt;&lt;font style=&quot;font-size:11px;font-family:Calibri;color:#000000;direction:ltr;letter-spacing:0px;line-height:120%;opacity:1&quot;&gt;调用接口&lt;br/&gt;&lt;/font&gt;&lt;/p&gt;" style="vsdxID=45;edgeStyle=none;startArrow=none;endArrow=classic;startSize=5;endSize=5;strokeColor=#000000;spacingTop=0;spacingBottom=0;spacingLeft=0;spacingRight=0;verticalAlign=middle;html=1;labelBackgroundColor=#FFFFFF;rounded=0;align=center;exitX=1;exitY=0.5;exitDx=0;exitDy=0;exitPerimeter=0;entryX=0;entryY=0.5;entryDx=0;entryDy=0;entryPerimeter=0;" parent="DUq77rUGLljhwTMfX-Vy-88" source="DUq77rUGLljhwTMfX-Vy-47" target="DUq77rUGLljhwTMfX-Vy-48" edge="1">
          <mxGeometry relative="1" as="geometry">
            <mxPoint as="offset" />
            <Array as="points" />
          </mxGeometry>
        </mxCell>
        <mxCell id="DUq77rUGLljhwTMfX-Vy-112" value="&lt;p style=&quot;align:center;margin-left:0;margin-right:0;margin-top:0px;margin-bottom:0px;text-indent:0;valign:middle;direction:ltr;&quot;&gt;&lt;font style=&quot;font-size:11px;font-family:Calibri;color:#000000;direction:ltr;letter-spacing:0px;line-height:120%;opacity:1&quot;&gt;验价失败&lt;br/&gt;&lt;/font&gt;&lt;/p&gt;" style="vsdxID=51;edgeStyle=none;startArrow=none;endArrow=classic;startSize=5;endSize=5;strokeColor=#000000;spacingTop=0;spacingBottom=0;spacingLeft=0;spacingRight=0;verticalAlign=middle;html=1;labelBackgroundColor=#FFFFFF;rounded=0;align=center;exitX=0;exitY=0.5;exitDx=0;exitDy=0;exitPerimeter=0;entryX=1;entryY=0.5;entryDx=0;entryDy=0;entryPerimeter=0;" parent="DUq77rUGLljhwTMfX-Vy-88" source="DUq77rUGLljhwTMfX-Vy-49" target="DUq77rUGLljhwTMfX-Vy-50" edge="1">
          <mxGeometry relative="1" as="geometry">
            <mxPoint as="offset" />
            <Array as="points" />
          </mxGeometry>
        </mxCell>
        <mxCell id="DUq77rUGLljhwTMfX-Vy-113" value="&lt;p style=&quot;align:center;margin-left:0;margin-right:0;margin-top:0px;margin-bottom:0px;text-indent:0;valign:middle;direction:ltr;&quot;&gt;&lt;font style=&quot;font-size:11px;font-family:Calibri;color:#000000;direction:ltr;letter-spacing:0px;line-height:120%;opacity:1&quot;&gt;提交&lt;br/&gt;&lt;/font&gt;&lt;/p&gt;" style="vsdxID=55;edgeStyle=none;startArrow=none;endArrow=classic;startSize=5;endSize=5;strokeColor=#000000;spacingTop=0;spacingBottom=0;spacingLeft=0;spacingRight=0;verticalAlign=middle;html=1;labelBackgroundColor=#FFFFFF;rounded=0;align=center;exitX=1;exitY=0.5;exitDx=0;exitDy=0;exitPerimeter=0;entryX=0;entryY=0.5;entryDx=0;entryDy=0;entryPerimeter=0;" parent="DUq77rUGLljhwTMfX-Vy-88" source="DUq77rUGLljhwTMfX-Vy-52" target="DUq77rUGLljhwTMfX-Vy-47" edge="1">
          <mxGeometry relative="1" as="geometry">
            <mxPoint as="offset" />
            <Array as="points" />
          </mxGeometry>
        </mxCell>
        <mxCell id="DUq77rUGLljhwTMfX-Vy-114" value="&lt;p style=&quot;align:center;margin-left:0;margin-right:0;margin-top:0px;margin-bottom:0px;text-indent:0;valign:middle;direction:ltr;&quot;&gt;&lt;font style=&quot;font-size:11px;font-family:Calibri;color:#000000;direction:ltr;letter-spacing:0px;line-height:120%;opacity:1&quot;&gt;下单成功&lt;br/&gt;&lt;/font&gt;&lt;/p&gt;" style="vsdxID=59;edgeStyle=none;startArrow=none;endArrow=classic;startSize=5;endSize=5;strokeColor=#000000;spacingTop=0;spacingBottom=0;spacingLeft=0;spacingRight=0;verticalAlign=middle;html=1;labelBackgroundColor=#FFFFFF;rounded=0;align=center;exitX=0.5;exitY=1;exitDx=0;exitDy=0;exitPerimeter=0;entryX=0.5;entryY=0;entryDx=0;entryDy=0;entryPerimeter=0;" parent="DUq77rUGLljhwTMfX-Vy-88" source="DUq77rUGLljhwTMfX-Vy-53" target="DUq77rUGLljhwTMfX-Vy-54" edge="1">
          <mxGeometry relative="1" as="geometry">
            <mxPoint x="10" as="offset" />
            <Array as="points" />
          </mxGeometry>
        </mxCell>
        <mxCell id="DUq77rUGLljhwTMfX-Vy-115" value="&lt;p style=&quot;align:center;margin-left:0;margin-right:0;margin-top:0px;margin-bottom:0px;text-indent:0;valign:middle;direction:ltr;&quot;&gt;&lt;font style=&quot;font-size:11px;font-family:Calibri;color:#000000;direction:ltr;letter-spacing:0px;line-height:120%;opacity:1&quot;&gt;下单失败&lt;br/&gt;&lt;/font&gt;&lt;/p&gt;" style="vsdxID=61;edgeStyle=none;startArrow=none;endArrow=classic;startSize=5;endSize=5;strokeColor=#000000;spacingTop=0;spacingBottom=0;spacingLeft=0;spacingRight=0;verticalAlign=middle;html=1;labelBackgroundColor=#FFFFFF;rounded=0;align=center;exitX=0;exitY=0.5;exitDx=0;exitDy=0;exitPerimeter=0;entryX=1;entryY=0.5;entryDx=0;entryDy=0;entryPerimeter=0;" parent="DUq77rUGLljhwTMfX-Vy-88" source="DUq77rUGLljhwTMfX-Vy-53" target="DUq77rUGLljhwTMfX-Vy-55" edge="1">
          <mxGeometry relative="1" as="geometry">
            <mxPoint as="offset" />
            <Array as="points" />
          </mxGeometry>
        </mxCell>
        <mxCell id="DUq77rUGLljhwTMfX-Vy-116" value="&lt;p style=&quot;align:center;margin-left:0;margin-right:0;margin-top:0px;margin-bottom:0px;text-indent:0;valign:middle;direction:ltr;&quot;&gt;&lt;font style=&quot;font-size:11px;font-family:Calibri;color:#000000;direction:ltr;letter-spacing:0px;line-height:120%;opacity:1&quot;&gt;调用接口&lt;br/&gt;&lt;/font&gt;&lt;/p&gt;" style="vsdxID=63;edgeStyle=none;startArrow=none;endArrow=classic;startSize=5;endSize=5;strokeColor=#000000;spacingTop=0;spacingBottom=0;spacingLeft=0;spacingRight=0;verticalAlign=middle;html=1;labelBackgroundColor=#FFFFFF;rounded=0;align=center;exitX=1;exitY=0.5;exitDx=0;exitDy=0;exitPerimeter=0;entryX=0;entryY=0.5;entryDx=0;entryDy=0;entryPerimeter=0;" parent="DUq77rUGLljhwTMfX-Vy-88" source="DUq77rUGLljhwTMfX-Vy-54" target="DUq77rUGLljhwTMfX-Vy-56" edge="1">
          <mxGeometry relative="1" as="geometry">
            <mxPoint as="offset" />
            <Array as="points" />
          </mxGeometry>
        </mxCell>
        <mxCell id="DUq77rUGLljhwTMfX-Vy-117" value="&lt;p style=&quot;align:center;margin-left:0;margin-right:0;margin-top:0px;margin-bottom:0px;text-indent:0;valign:middle;direction:ltr;&quot;&gt;&lt;font style=&quot;font-size:11px;font-family:Calibri;color:#000000;direction:ltr;letter-spacing:0px;line-height:120%;opacity:1&quot;&gt;申请结果返回&lt;br/&gt;&lt;/font&gt;&lt;/p&gt;" style="vsdxID=65;edgeStyle=none;startArrow=none;endArrow=classic;startSize=5;endSize=5;strokeColor=#000000;spacingTop=0;spacingBottom=0;spacingLeft=0;spacingRight=0;verticalAlign=middle;html=1;labelBackgroundColor=#FFFFFF;rounded=0;align=center;exitX=0.5;exitY=1;exitDx=0;exitDy=0;exitPerimeter=0;entryX=1;entryY=0.5;entryDx=0;entryDy=0;entryPerimeter=0;" parent="DUq77rUGLljhwTMfX-Vy-88" source="DUq77rUGLljhwTMfX-Vy-56" target="DUq77rUGLljhwTMfX-Vy-58" edge="1">
          <mxGeometry relative="1" as="geometry">
            <mxPoint as="offset" />
            <Array as="points">
              <mxPoint x="961" y="941" />
            </Array>
          </mxGeometry>
        </mxCell>
        <mxCell id="DUq77rUGLljhwTMfX-Vy-118" value="&lt;p style=&quot;align:center;margin-left:0;margin-right:0;margin-top:0px;margin-bottom:0px;text-indent:0;valign:middle;direction:ltr;&quot;&gt;&lt;font style=&quot;font-size:11px;font-family:Calibri;color:#000000;direction:ltr;letter-spacing:0px;line-height:120%;opacity:1&quot;&gt;申请结果返回&lt;br/&gt;&lt;/font&gt;&lt;/p&gt;" style="vsdxID=68;edgeStyle=none;startArrow=none;endArrow=classic;startSize=5;endSize=5;strokeColor=#000000;spacingTop=0;spacingBottom=0;spacingLeft=0;spacingRight=0;verticalAlign=middle;html=1;labelBackgroundColor=#FFFFFF;rounded=0;align=center;exitX=0;exitY=0.5;exitDx=0;exitDy=0;exitPerimeter=0;entryX=1;entryY=0.5;entryDx=0;entryDy=0;entryPerimeter=0;" parent="DUq77rUGLljhwTMfX-Vy-88" source="DUq77rUGLljhwTMfX-Vy-58" target="DUq77rUGLljhwTMfX-Vy-59" edge="1">
          <mxGeometry relative="1" as="geometry">
            <mxPoint as="offset" />
            <Array as="points" />
          </mxGeometry>
        </mxCell>
        <mxCell id="DUq77rUGLljhwTMfX-Vy-119" value="&lt;p style=&quot;align:center;margin-left:0;margin-right:0;margin-top:0px;margin-bottom:0px;text-indent:0;valign:middle;direction:ltr;&quot;&gt;&lt;font style=&quot;font-size:11px;font-family:Calibri;color:#000000;direction:ltr;letter-spacing:0px;line-height:120%;opacity:1&quot;&gt;异步通知&lt;br/&gt;&lt;/font&gt;&lt;/p&gt;" style="vsdxID=70;edgeStyle=none;startArrow=none;endArrow=classic;startSize=5;endSize=5;strokeColor=#000000;spacingTop=0;spacingBottom=0;spacingLeft=0;spacingRight=0;verticalAlign=middle;html=1;labelBackgroundColor=#FFFFFF;rounded=0;align=center;exitX=0;exitY=0.5;exitDx=0;exitDy=0;exitPerimeter=0;entryX=1;entryY=0.5;entryDx=0;entryDy=0;entryPerimeter=0;" parent="DUq77rUGLljhwTMfX-Vy-88" source="DUq77rUGLljhwTMfX-Vy-60" target="DUq77rUGLljhwTMfX-Vy-61" edge="1">
          <mxGeometry relative="1" as="geometry">
            <mxPoint as="offset" />
            <Array as="points" />
          </mxGeometry>
        </mxCell>
        <mxCell id="DUq77rUGLljhwTMfX-Vy-120" value="&lt;p style=&quot;align:center;margin-left:0;margin-right:0;margin-top:0px;margin-bottom:0px;text-indent:0;valign:middle;direction:ltr;&quot;&gt;&lt;font style=&quot;font-size:11px;font-family:Calibri;color:#000000;direction:ltr;letter-spacing:0px;line-height:120%;opacity:1&quot;&gt;填写内容&lt;br/&gt;&lt;/font&gt;&lt;/p&gt;" style="vsdxID=71;edgeStyle=none;startArrow=none;endArrow=classic;startSize=5;endSize=5;strokeColor=#000000;spacingTop=0;spacingBottom=0;spacingLeft=0;spacingRight=0;verticalAlign=middle;html=1;labelBackgroundColor=#FFFFFF;rounded=0;align=center;exitX=0.5;exitY=1;exitDx=0;exitDy=0;exitPerimeter=0;entryX=0.5;entryY=0;entryDx=0;entryDy=0;entryPerimeter=0;" parent="DUq77rUGLljhwTMfX-Vy-88" source="DUq77rUGLljhwTMfX-Vy-51" target="DUq77rUGLljhwTMfX-Vy-52" edge="1">
          <mxGeometry relative="1" as="geometry">
            <mxPoint x="10" as="offset" />
            <Array as="points" />
          </mxGeometry>
        </mxCell>
        <mxCell id="DUq77rUGLljhwTMfX-Vy-121" value="&lt;p style=&quot;align:center;margin-left:0;margin-right:0;margin-top:0px;margin-bottom:0px;text-indent:0;valign:middle;direction:ltr;&quot;&gt;&lt;font style=&quot;font-size:11px;font-family:Calibri;color:#000000;direction:ltr;letter-spacing:0px;line-height:120%;opacity:1&quot;&gt;提交&lt;br/&gt;&lt;/font&gt;&lt;/p&gt;" style="vsdxID=77;edgeStyle=none;startArrow=none;endArrow=classic;startSize=5;endSize=5;strokeColor=#000000;spacingTop=0;spacingBottom=0;spacingLeft=0;spacingRight=0;verticalAlign=middle;html=1;labelBackgroundColor=#FFFFFF;rounded=0;align=center;exitX=1;exitY=0.5;exitDx=0;exitDy=0;exitPerimeter=0;entryX=0;entryY=0.5;entryDx=0;entryDy=0;entryPerimeter=0;" parent="DUq77rUGLljhwTMfX-Vy-88" source="DUq77rUGLljhwTMfX-Vy-62" target="DUq77rUGLljhwTMfX-Vy-63" edge="1">
          <mxGeometry relative="1" as="geometry">
            <mxPoint as="offset" />
            <Array as="points" />
          </mxGeometry>
        </mxCell>
        <mxCell id="DUq77rUGLljhwTMfX-Vy-122" value="&lt;p style=&quot;align:center;margin-left:0;margin-right:0;margin-top:0px;margin-bottom:0px;text-indent:0;valign:middle;direction:ltr;&quot;&gt;&lt;font style=&quot;font-size:11px;font-family:Calibri;color:#000000;direction:ltr;letter-spacing:0px;line-height:120%;opacity:1&quot;&gt;调用接口&lt;br/&gt;&lt;/font&gt;&lt;/p&gt;" style="vsdxID=79;edgeStyle=none;startArrow=none;endArrow=classic;startSize=5;endSize=5;strokeColor=#000000;spacingTop=0;spacingBottom=0;spacingLeft=0;spacingRight=0;verticalAlign=middle;html=1;labelBackgroundColor=#FFFFFF;rounded=0;align=center;exitX=1;exitY=0.5;exitDx=0;exitDy=0;exitPerimeter=0;entryX=0;entryY=0.5;entryDx=0;entryDy=0;entryPerimeter=0;" parent="DUq77rUGLljhwTMfX-Vy-88" source="DUq77rUGLljhwTMfX-Vy-63" target="DUq77rUGLljhwTMfX-Vy-64" edge="1">
          <mxGeometry relative="1" as="geometry">
            <mxPoint as="offset" />
            <Array as="points" />
          </mxGeometry>
        </mxCell>
        <mxCell id="DUq77rUGLljhwTMfX-Vy-123" value="&lt;p style=&quot;align:center;margin-left:0;margin-right:0;margin-top:0px;margin-bottom:0px;text-indent:0;valign:middle;direction:ltr;&quot;&gt;&lt;font style=&quot;font-size:11px;font-family:Calibri;color:#000000;direction:ltr;letter-spacing:0px;line-height:120%;opacity:1&quot;&gt;申请结果返回&lt;br/&gt;&lt;/font&gt;&lt;/p&gt;" style="vsdxID=81;edgeStyle=none;startArrow=none;endArrow=classic;startSize=5;endSize=5;strokeColor=#000000;spacingTop=0;spacingBottom=0;spacingLeft=0;spacingRight=0;verticalAlign=middle;html=1;labelBackgroundColor=#FFFFFF;rounded=0;align=center;exitX=0.5;exitY=1;exitDx=0;exitDy=0;exitPerimeter=0;entryX=1;entryY=0.5;entryDx=0;entryDy=0;entryPerimeter=0;" parent="DUq77rUGLljhwTMfX-Vy-88" source="DUq77rUGLljhwTMfX-Vy-64" target="DUq77rUGLljhwTMfX-Vy-65" edge="1">
          <mxGeometry relative="1" as="geometry">
            <mxPoint as="offset" />
            <Array as="points">
              <mxPoint x="961" y="1325" />
            </Array>
          </mxGeometry>
        </mxCell>
        <mxCell id="DUq77rUGLljhwTMfX-Vy-124" value="&lt;p style=&quot;align:center;margin-left:0;margin-right:0;margin-top:0px;margin-bottom:0px;text-indent:0;valign:middle;direction:ltr;&quot;&gt;&lt;font style=&quot;font-size:11px;font-family:Calibri;color:#000000;direction:ltr;letter-spacing:0px;line-height:120%;opacity:1&quot;&gt;结果返回&lt;br/&gt;&lt;/font&gt;&lt;/p&gt;" style="vsdxID=83;edgeStyle=none;startArrow=none;endArrow=classic;startSize=5;endSize=5;strokeColor=#000000;spacingTop=0;spacingBottom=0;spacingLeft=0;spacingRight=0;verticalAlign=middle;html=1;labelBackgroundColor=#FFFFFF;rounded=0;align=center;exitX=0;exitY=0.5;exitDx=0;exitDy=0;exitPerimeter=0;entryX=1;entryY=0.5;entryDx=0;entryDy=0;entryPerimeter=0;" parent="DUq77rUGLljhwTMfX-Vy-88" source="DUq77rUGLljhwTMfX-Vy-65" target="DUq77rUGLljhwTMfX-Vy-66" edge="1">
          <mxGeometry relative="1" as="geometry">
            <mxPoint as="offset" />
            <Array as="points" />
          </mxGeometry>
        </mxCell>
        <mxCell id="DUq77rUGLljhwTMfX-Vy-125" value="&lt;p style=&quot;align:center;margin-left:0;margin-right:0;margin-top:0px;margin-bottom:0px;text-indent:0;valign:middle;direction:ltr;&quot;&gt;&lt;font style=&quot;font-size:11px;font-family:Calibri;color:#000000;direction:ltr;letter-spacing:0px;line-height:120%;opacity:1&quot;&gt;异步回调&lt;br/&gt;&lt;/font&gt;&lt;/p&gt;" style="vsdxID=87;edgeStyle=none;startArrow=none;endArrow=classic;startSize=5;endSize=5;strokeColor=#000000;spacingTop=0;spacingBottom=0;spacingLeft=0;spacingRight=0;verticalAlign=middle;html=1;labelBackgroundColor=#FFFFFF;rounded=0;align=center;exitX=0;exitY=0.5;exitDx=0;exitDy=0;exitPerimeter=0;entryX=1;entryY=0.5;entryDx=0;entryDy=0;entryPerimeter=0;" parent="DUq77rUGLljhwTMfX-Vy-88" source="DUq77rUGLljhwTMfX-Vy-67" target="DUq77rUGLljhwTMfX-Vy-68" edge="1">
          <mxGeometry relative="1" as="geometry">
            <mxPoint as="offset" />
            <Array as="points" />
          </mxGeometry>
        </mxCell>
        <mxCell id="DUq77rUGLljhwTMfX-Vy-126" value="&lt;p style=&quot;align:center;margin-left:0;margin-right:0;margin-top:0px;margin-bottom:0px;text-indent:0;valign:middle;direction:ltr;&quot;&gt;&lt;font style=&quot;font-size:11px;font-family:Calibri;color:#000000;direction:ltr;letter-spacing:0px;line-height:120%;opacity:1&quot;&gt;异步通知&lt;br/&gt;&lt;/font&gt;&lt;/p&gt;" style="vsdxID=89;edgeStyle=none;startArrow=none;endArrow=classic;startSize=5;endSize=5;strokeColor=#000000;spacingTop=0;spacingBottom=0;spacingLeft=0;spacingRight=0;verticalAlign=middle;html=1;labelBackgroundColor=#FFFFFF;rounded=0;align=center;exitX=0;exitY=0.5;exitDx=0;exitDy=0;exitPerimeter=0;entryX=1;entryY=0.5;entryDx=0;entryDy=0;entryPerimeter=0;" parent="DUq77rUGLljhwTMfX-Vy-88" source="DUq77rUGLljhwTMfX-Vy-68" target="DUq77rUGLljhwTMfX-Vy-69" edge="1">
          <mxGeometry relative="1" as="geometry">
            <mxPoint as="offset" />
            <Array as="points" />
          </mxGeometry>
        </mxCell>
        <mxCell id="DUq77rUGLljhwTMfX-Vy-127" value="&lt;p style=&quot;align:center;margin-left:0;margin-right:0;margin-top:0px;margin-bottom:0px;text-indent:0;valign:middle;direction:ltr;&quot;&gt;&lt;font style=&quot;font-size:11px;font-family:Calibri;color:#000000;direction:ltr;letter-spacing:0px;line-height:120%;opacity:1&quot;&gt;提交&lt;br/&gt;&lt;/font&gt;&lt;/p&gt;" style="vsdxID=95;edgeStyle=none;startArrow=none;endArrow=classic;startSize=5;endSize=5;strokeColor=#000000;spacingTop=0;spacingBottom=0;spacingLeft=0;spacingRight=0;verticalAlign=middle;html=1;labelBackgroundColor=#FFFFFF;rounded=0;align=center;exitX=1;exitY=0.5;exitDx=0;exitDy=0;exitPerimeter=0;entryX=0;entryY=0.5;entryDx=0;entryDy=0;entryPerimeter=0;" parent="DUq77rUGLljhwTMfX-Vy-88" source="DUq77rUGLljhwTMfX-Vy-70" target="DUq77rUGLljhwTMfX-Vy-71" edge="1">
          <mxGeometry relative="1" as="geometry">
            <mxPoint as="offset" />
            <Array as="points" />
          </mxGeometry>
        </mxCell>
        <mxCell id="DUq77rUGLljhwTMfX-Vy-128" value="&lt;p style=&quot;align:center;margin-left:0;margin-right:0;margin-top:0px;margin-bottom:0px;text-indent:0;valign:middle;direction:ltr;&quot;&gt;&lt;font style=&quot;font-size:11px;font-family:Calibri;color:#000000;direction:ltr;letter-spacing:0px;line-height:120%;opacity:1&quot;&gt;调用接口&lt;br/&gt;&lt;/font&gt;&lt;/p&gt;" style="vsdxID=97;edgeStyle=none;startArrow=none;endArrow=classic;startSize=5;endSize=5;strokeColor=#000000;spacingTop=0;spacingBottom=0;spacingLeft=0;spacingRight=0;verticalAlign=middle;html=1;labelBackgroundColor=#FFFFFF;rounded=0;align=center;exitX=1;exitY=0.5;exitDx=0;exitDy=0;exitPerimeter=0;entryX=0;entryY=0.5;entryDx=0;entryDy=0;entryPerimeter=0;" parent="DUq77rUGLljhwTMfX-Vy-88" source="DUq77rUGLljhwTMfX-Vy-71" target="DUq77rUGLljhwTMfX-Vy-72" edge="1">
          <mxGeometry relative="1" as="geometry">
            <mxPoint as="offset" />
            <Array as="points" />
          </mxGeometry>
        </mxCell>
        <mxCell id="DUq77rUGLljhwTMfX-Vy-129" value="&lt;p style=&quot;align:center;margin-left:0;margin-right:0;margin-top:0px;margin-bottom:0px;text-indent:0;valign:middle;direction:ltr;&quot;&gt;&lt;font style=&quot;font-size:11px;font-family:Calibri;color:#000000;direction:ltr;letter-spacing:0px;line-height:120%;opacity:1&quot;&gt;申请受理结果返回&lt;br/&gt;&lt;/font&gt;&lt;/p&gt;" style="vsdxID=101;edgeStyle=none;startArrow=none;endArrow=classic;startSize=5;endSize=5;strokeColor=#000000;spacingTop=0;spacingBottom=0;spacingLeft=0;spacingRight=0;verticalAlign=middle;html=1;labelBackgroundColor=#FFFFFF;rounded=0;align=center;exitX=0.5;exitY=1;exitDx=0;exitDy=0;exitPerimeter=0;entryX=1;entryY=0.5;entryDx=0;entryDy=0;entryPerimeter=0;" parent="DUq77rUGLljhwTMfX-Vy-88" source="DUq77rUGLljhwTMfX-Vy-72" target="DUq77rUGLljhwTMfX-Vy-74" edge="1">
          <mxGeometry relative="1" as="geometry">
            <mxPoint as="offset" />
            <Array as="points">
              <mxPoint x="961" y="1901" />
            </Array>
          </mxGeometry>
        </mxCell>
        <mxCell id="DUq77rUGLljhwTMfX-Vy-130" value="&lt;p style=&quot;align:center;margin-left:0;margin-right:0;margin-top:0px;margin-bottom:0px;text-indent:0;valign:middle;direction:ltr;&quot;&gt;&lt;font style=&quot;font-size:11px;font-family:Calibri;color:#000000;direction:ltr;letter-spacing:0px;line-height:120%;opacity:1&quot;&gt;异步&lt;br/&gt;&lt;/font&gt;&lt;/p&gt;" style="vsdxID=113;edgeStyle=none;startArrow=none;endArrow=classic;startSize=5;endSize=5;strokeColor=#000000;spacingTop=0;spacingBottom=0;spacingLeft=0;spacingRight=0;verticalAlign=middle;html=1;labelBackgroundColor=#FFFFFF;rounded=0;align=center;exitX=1;exitY=0.5;exitDx=0;exitDy=0;exitPerimeter=0;entryX=1;entryY=0.5;entryDx=0;entryDy=0;entryPerimeter=0;" parent="DUq77rUGLljhwTMfX-Vy-88" source="DUq77rUGLljhwTMfX-Vy-78" target="DUq77rUGLljhwTMfX-Vy-80" edge="1">
          <mxGeometry relative="1" as="geometry">
            <mxPoint x="10" as="offset" />
            <Array as="points">
              <mxPoint x="1041" y="2151" />
              <mxPoint x="1041" y="2323" />
            </Array>
          </mxGeometry>
        </mxCell>
        <mxCell id="DUq77rUGLljhwTMfX-Vy-131" value="&lt;p style=&quot;align:center;margin-left:0;margin-right:0;margin-top:0px;margin-bottom:0px;text-indent:0;valign:middle;direction:ltr;&quot;&gt;&lt;font style=&quot;font-size:11px;font-family:Calibri;color:#000000;direction:ltr;letter-spacing:0px;line-height:120%;opacity:1&quot;&gt;验价成功&lt;br/&gt;&lt;/font&gt;&lt;/p&gt;" style="vsdxID=52;edgeStyle=none;startArrow=none;endArrow=classic;startSize=5;endSize=5;strokeColor=#000000;spacingTop=0;spacingBottom=0;spacingLeft=0;spacingRight=0;verticalAlign=middle;html=1;labelBackgroundColor=#FFFFFF;rounded=0;align=center;exitX=0.5;exitY=1;exitDx=0;exitDy=0;exitPerimeter=0;entryX=1;entryY=0.5;entryDx=0;entryDy=0;entryPerimeter=0;" parent="DUq77rUGLljhwTMfX-Vy-88" source="DUq77rUGLljhwTMfX-Vy-49" target="DUq77rUGLljhwTMfX-Vy-51" edge="1">
          <mxGeometry relative="1" as="geometry">
            <mxPoint as="offset" />
            <Array as="points">
              <mxPoint x="471" y="511" />
            </Array>
          </mxGeometry>
        </mxCell>
        <mxCell id="DUq77rUGLljhwTMfX-Vy-132" value="&lt;p style=&quot;align:center;margin-left:0;margin-right:0;margin-top:0px;margin-bottom:0px;text-indent:0;valign:middle;direction:ltr;&quot;&gt;&lt;font style=&quot;font-size:11px;font-family:Calibri;color:#000000;direction:ltr;letter-spacing:0px;line-height:120%;opacity:1&quot;&gt;下单结果返回&lt;br/&gt;&lt;/font&gt;&lt;/p&gt;" style="vsdxID=57;edgeStyle=none;startArrow=none;endArrow=classic;startSize=5;endSize=5;strokeColor=#000000;spacingTop=0;spacingBottom=0;spacingLeft=0;spacingRight=0;verticalAlign=middle;html=1;labelBackgroundColor=#FFFFFF;rounded=0;align=center;exitX=0.5;exitY=1;exitDx=0;exitDy=0;exitPerimeter=0;entryX=1;entryY=0.5;entryDx=0;entryDy=0;entryPerimeter=0;" parent="DUq77rUGLljhwTMfX-Vy-88" source="DUq77rUGLljhwTMfX-Vy-48" target="DUq77rUGLljhwTMfX-Vy-53" edge="1">
          <mxGeometry relative="1" as="geometry">
            <mxPoint as="offset" />
            <Array as="points">
              <mxPoint x="975" y="721" />
            </Array>
          </mxGeometry>
        </mxCell>
        <mxCell id="DUq77rUGLljhwTMfX-Vy-133" value="&lt;p style=&quot;align:center;margin-left:0;margin-right:0;margin-top:0px;margin-bottom:0px;text-indent:0;valign:middle;direction:ltr;&quot;&gt;&lt;font style=&quot;font-size:11px;font-family:Calibri;color:#000000;direction:ltr;letter-spacing:0px;line-height:120%;opacity:1&quot;&gt;异步&lt;br/&gt;&lt;/font&gt;&lt;/p&gt;" style="vsdxID=85;edgeStyle=none;startArrow=none;endArrow=classic;startSize=5;endSize=5;strokeColor=#000000;spacingTop=0;spacingBottom=0;spacingLeft=0;spacingRight=0;verticalAlign=middle;html=1;labelBackgroundColor=#FFFFFF;rounded=0;align=center;exitX=1;exitY=0.5;exitDx=0;exitDy=0;exitPerimeter=0;entryX=1;entryY=0.5;entryDx=0;entryDy=0;entryPerimeter=0;" parent="DUq77rUGLljhwTMfX-Vy-88" source="DUq77rUGLljhwTMfX-Vy-64" target="DUq77rUGLljhwTMfX-Vy-67" edge="1">
          <mxGeometry relative="1" as="geometry">
            <mxPoint x="10" as="offset" />
            <Array as="points">
              <mxPoint x="1041" y="1231" />
              <mxPoint x="1041" y="1421" />
            </Array>
          </mxGeometry>
        </mxCell>
        <mxCell id="DUq77rUGLljhwTMfX-Vy-134" value="&lt;p style=&quot;align:center;margin-left:0;margin-right:0;margin-top:0px;margin-bottom:0px;text-indent:0;valign:middle;direction:ltr;&quot;&gt;&lt;font style=&quot;font-size:11px;font-family:Calibri;color:#000000;direction:ltr;letter-spacing:0px;line-height:120%;opacity:1&quot;&gt;异步&lt;br/&gt;&lt;/font&gt;&lt;/p&gt;" style="vsdxID=99;edgeStyle=none;startArrow=none;endArrow=classic;startSize=5;endSize=5;strokeColor=#000000;spacingTop=0;spacingBottom=0;spacingLeft=0;spacingRight=0;verticalAlign=middle;html=1;labelBackgroundColor=#FFFFFF;rounded=0;align=center;exitX=1;exitY=0.5;exitDx=0;exitDy=0;exitPerimeter=0;entryX=1;entryY=0.5;entryDx=0;entryDy=0;entryPerimeter=0;" parent="DUq77rUGLljhwTMfX-Vy-88" source="DUq77rUGLljhwTMfX-Vy-72" target="DUq77rUGLljhwTMfX-Vy-73" edge="1">
          <mxGeometry relative="1" as="geometry">
            <mxPoint x="10" as="offset" />
            <Array as="points">
              <mxPoint x="1041" y="1801" />
              <mxPoint x="1041" y="2031" />
            </Array>
          </mxGeometry>
        </mxCell>
      </root>
    </mxGraphModel>
  </diagram>
</mxfile>
